/* XPM */
static char *adbdbd495a954b84dcce365fcbfadbcceRnwv2FVZj0EMUsH[] = {
/* columns rows colors chars-per-pixel */
"64 64 245 2 ",
"   c #0F084D",
".  c #120B4F",
"X  c #150750",
"o  c #160952",
"O  c #190C54",
"+  c #17095B",
"@  c #190C5B",
"#  c #161253",
"$  c #1A1356",
"%  c #1B1957",
"&  c #161658",
"*  c #1C155A",
"=  c #1C1C59",
"-  c #231459",
";  c #27165A",
":  c #211B5C",
">  c #1E235B",
",  c #1F2B5E",
"<  c #22265E",
"1  c #1A0C63",
"2  c #1B0C66",
"3  c #1E1B61",
"4  c #1F136C",
"5  c #1F0F70",
"6  c #240F6D",
"7  c #231B67",
"8  c #271576",
"9  c #36197B",
"0  c #182A68",
"q  c #1F3060",
"w  c #0F3173",
"e  c #163779",
"r  c #272766",
"t  c #352566",
"y  c #203362",
"u  c #243A66",
"i  c #33346A",
"p  c #232572",
"a  c #263877",
"s  c #3B3975",
"d  c #472F6C",
"f  c #463775",
"g  c #6E3075",
"h  c #28435F",
"j  c #264370",
"k  c #3A4C71",
"l  c #3C5272",
"z  c #424C6D",
"x  c #514A7C",
"c  c #445572",
"v  c #495371",
"b  c #435873",
"n  c #251689",
"m  c #3B1D84",
"M  c #1A3E81",
"N  c #3A2181",
"B  c #233C81",
"V  c #2A3E81",
"C  c #353982",
"Z  c #352290",
"A  c #411E85",
"S  c #422386",
"D  c #45248B",
"F  c #4A3789",
"G  c #743A8B",
"H  c #1D498C",
"J  c #264586",
"K  c #374789",
"L  c #3A578C",
"P  c #394D93",
"I  c #295799",
"U  c #245B9F",
"Y  c #355A95",
"T  c #3A5999",
"R  c #3A638E",
"E  c #255EA3",
"W  c #2C5BA1",
"Q  c #3B5CA3",
"!  c #2661A5",
"~  c #2A66AA",
"^  c #3264A2",
"/  c #3C65A3",
"(  c #3A68A9",
")  c #3671AE",
"_  c #3B78AE",
"`  c #3070B3",
"'  c #3C73B2",
"]  c #3A78B6",
"[  c #474387",
"{  c #58478A",
"}  c #4A558F",
"|  c #465B9B",
" . c #575C9B",
".. c #6A4D8F",
"X. c #51638D",
"o. c #666694",
"O. c #4B5EA5",
"+. c #545DA5",
"@. c #6859A1",
"#. c #4666A9",
"$. c #5865A9",
"%. c #4F6BB1",
"&. c #4473B1",
"*. c #4977B7",
"=. c #437DB5",
"-. c #5677B5",
";. c #5B74B5",
":. c #547EBA",
">. c #6765A9",
",. c #7765AB",
"<. c #6769B2",
"1. c #7C6AB4",
"2. c #6475B6",
"3. c #6878B8",
"4. c #7977BA",
"5. c #377BC5",
"6. c #4B6DCD",
"7. c #487AC6",
"8. c #557AC6",
"9. c #4E72D0",
"0. c #4C7CD3",
"q. c #5374D0",
"w. c #5B77D4",
"e. c #527BD2",
"r. c #5C7BD4",
"t. c #687DC6",
"y. c #607DD6",
"u. c #903A8C",
"i. c #8E5194",
"p. c #BB5694",
"a. c #99699E",
"s. c #96709F",
"d. c #A1639D",
"f. c #8F56A8",
"g. c #BB5BA8",
"h. c #8869AC",
"j. c #976DA1",
"k. c #8E7BA3",
"l. c #937AA3",
"z. c #876AB5",
"x. c #946AB6",
"c. c #8877BB",
"v. c #9775B8",
"b. c #AA69A2",
"n. c #A46DBC",
"m. c #B969B5",
"M. c #B86ABA",
"N. c #A375BD",
"B. c #CF548D",
"V. c #DB5CA3",
"C. c #D267B2",
"Z. c #8E7EC1",
"A. c #927CC0",
"S. c #9C7DC2",
"D. c #A77DC3",
"F. c #B572C1",
"G. c #CB73C4",
"H. c #D579C9",
"J. c #E27BCD",
"K. c #3D88B5",
"L. c #77829C",
"P. c #519BA7",
"I. c #4786B9",
"U. c #5883BA",
"Y. c #4293B6",
"T. c #489CBA",
"R. c #579ABC",
"E. c #6A86AC",
"W. c #6882BC",
"Q. c #7783BE",
"!. c #5AA1A9",
"~. c #4BA4BC",
"^. c #4EAABE",
"/. c #54A9BB",
"(. c #57B3BE",
"). c #62AEB2",
"_. c #64B5B4",
"`. c #3A83CC",
"'. c #3886D3",
"]. c #4887C7",
"[. c #5788CC",
"{. c #5094CC",
"}. c #4C86D6",
"|. c #4B8CD4",
" X c #4D87D8",
".X c #4D88D8",
"XX c #5689D6",
"oX c #528BD9",
"OX c #4D99D6",
"+X c #559DD5",
"@X c #5B93DA",
"#X c #5A97D8",
"$X c #6685CB",
"%X c #7C83C1",
"&X c #7094C8",
"*X c #6687D2",
"=X c #728AD1",
"-X c #6699D9",
";X c #7699D7",
":X c #57ADC6",
">X c #52B5C2",
",X c #5ABAC5",
"<X c #4FA2D4",
"1X c #58A7D7",
"2X c #65A2C1",
"3X c #76A9C5",
"4X c #64BAC7",
"5X c #74B9CA",
"6X c #66A6D9",
"7X c #7BA6DD",
"8X c #4F9FE4",
"9X c #659CE0",
"0X c #55A4E6",
"qX c #6BA6E1",
"wX c #73ABE2",
"eX c #7BB4E3",
"rX c #7AB6E5",
"tX c #5DC5C9",
"yX c #68C6CB",
"uX c #78C6CF",
"iX c #71D1CD",
"pX c #6AE6CF",
"aX c #6BE7D0",
"sX c #8B88AB",
"dX c #8985C3",
"fX c #9787C6",
"gX c #878DD1",
"hX c #8493D5",
"jX c #A786C8",
"kX c #B786C9",
"lX c #B790CF",
"zX c #BA94D1",
"xX c #88ACCA",
"cX c #84A6DA",
"vX c #99B7D3",
"bX c #A9AAD0",
"nX c #97B9E3",
"mX c #C985CD",
"MX c #C18FD1",
"NX c #C5ADDB",
"BX c #88CBD5",
"VX c #9FC6D6",
"CX c #A9C6DF",
"ZX c #CBCADD",
"AX c #D4D4E4",
/* pixels */
"X X X X X X X X X X X X X X X X X X X X X X X X X X X X X X X X X X X X X X X X X X X X X X X X X X X X X X X X X X X X X X X X ",
"X X X X X X X X X X X X X X X X X X X X X X X X X X X X X X X X X X X X X X X X X X X X X X X X X X X X X X X X X X X X X X X X ",
"o o o o o o o o o o X X X X o o o o X X X X o o X o o o o o o o X X o o o o o o o o o X o o o o o o o o o o o o o o o o o o o o ",
"o o o o o o o X X X X X o o + + + + + o o X X X $ o X o o o o X o o X o o o o o o X o o o o X o O o o o o o o X O O X o o o o o ",
"X X X X X o o o O o o o + + 1 1 1 1 + @ @ o o X o o X X X X X X o o X X X X X X X X o o o X X o o o X X X X X X o o X X X X X X ",
"o o o o o o o o O o o + 1 2 8 9 9 9 6 1 + @ O X o o o o o o o o o o o o o o o o o o o o o o o o o o o o o o o o o o o o o o o o ",
"o o o o o o o o o O + 1 6 9 m m m m m 8 1 @ + o o o o o o o o o o o o O o o o o o o o o o o o o o o o o o o o o o o o o o o o o ",
"o o o o o o o o o + + 2 9 m A A A A A m 6 1 + o o o o o o o o o o o o o o o o o o o o o o o o O o o o o o o o o o o O o o O o o ",
"o o o o o o o o o + 1 6 9 A S D D D S A 9 2 @ o o o o o o o o o o o o o o o o o o o o o o o o o o o o o o o O O O O - o o o o o ",
"o o o o o o o o O @ 1 8 m S D D D D D S 9 2 + O o o o o o o o O O o o o o o o o o o o o o o o o o o o o O - ; ; ; - O o o o o O ",
"o o o o o o o O O @ 2 8 m D D D D D D S 9 2 + @ o o o o o o o o O o o o o o o o o o o o o o o o o o O O ; t t d t t ; - O o o o ",
"o o o o o o o o O @ 5 8 m D D D D D S N 9 1 @ O O o o o o o o o o o o o o o o o o o o o o o o o o o O ; t d x { x f t ; O o o o ",
"o o o o o o O O O @ 5 8 m Z D S S S S 9 6 1 @ O O o o o o o o o o o o o o o o o o o o o o o o o o O - ; d ..p.B.i.{ d t - O o o ",
"o o o O o o O O O @ 8 n n Z m N N N 9 8 2 7 @ O O o o o o o o o o o O o o o o o o O O o o o o o o O - t f i.B.B.p. .x t - O o o ",
"o o o O o o o O O @ 8 n n n 8 8 8 8 4 2 @ 7 @ O o o O o o o o o o o - O o o o o O - O o o o o o O O - r I / #.*.|.|.( t - O o o ",
"O O - O O - O O O O 8 n n n 2 2 2 2 1 @ @ @ O O O $ O O O O O O O O O O O O O O O o O O O O O O O O - a ^ ) ' ].OX0X*.t - O o o ",
"O O O O O O O O O O F +.+.n @ @ @ @ @ @ @ O $ O O $ O O O O O O O O O O O O O O O O O O O O O $ O $ - B ^ ) ' I.OX8X&.: $ O O O ",
"O O O O O O O O O $ E.CXVX[ @ @ @ @ @ $ O O O O O O O O O O O O O O O O O O O O O O O O O O * p O O * V ^ ) ) ] |.8X' - $ O O O ",
"O O $ O $ O O O O = ` `.] a O O $ $ $ $ O O O O O O O O O O $ O O O O O O $ O O O O O O O O 3 J $ O * V ^ ) ) ] ].8X' * $ O O O ",
"$ $ $ $ $ $ $ $ $ = ~ '.5.0 $ $ $ $ $ $ $ $ $ $ $ $ $ $ $ $ $ $ $ $ $ $ $ $ $ $ $ $ $ $ O O a / r O * a ^ ) ) ] ].OX' * $ $ $ $ ",
"$ $ $ $ $ $ $ $ $ = E ] ` 0 $ $ $ $ $ $ $ $ $ $ $ $ $ $ $ $ $ $ $ $ $ $ $ $ $ $ $ $ $ $ $ O a #.7 # * a ^ ) ) ' ].OX' * $ $ $ $ ",
"$ $ $ $ $ $ $ $ $ = U ~ ~ 0 $ $ $ $ $ $ $ $ $ $ $ $ $ $ $ $ $ $ $ $ $ $ $ $ $ $ $ $ $ $ $ p K / P r * V ^ ) ) ) K.OX' * $ : $ $ ",
"$ $ $ $ $ $ $ $ $ 3 I ! E 0 $ $ $ $ $ $ $ $ $ $ $ $ $ $ $ $ $ $ $ $ $ $ $ $ $ $ $ * $ $ 3 Q #.#.*.| = V ^ ) ) ) ] |.' * $ * $ $ ",
"$ $ $ $ $ $ $ $ $ 3 U ! E 0 $ $ $ $ $ $ $ $ $ $ $ $ $ $ $ $ * : $ $ * * * * * * * * $ $ 0 T #.#.%.T = V ^ ) ) ) ] ].) = $ $ $ $ ",
"$ = $ $ $ $ $ $ $ j ` ] ` e # $ $ $ $ $ $ $ $ $ $ $ $ $ $ $ = $ $ $ = 3 3 3 3 3 3 = $ $ $ p P #.P r * V ^ ' ) ) ' ].( % $ $ $ $ ",
"% = % $ $ $ $ $ $ J `.'.`.H # # $ % % % $ $ $ $ % % % % % % $ $ $ % 7 7 7 7 7 7 7 3 % $ $ $ K ;.a $ = V ^ ' ) ) ' ].( = % $ % % ",
"% % % % % % % % % J 5.'.`.J # # % % % % % % % % $ $ $ $ $ $ % % % % 7 p p p p p p 3 % % % = K #.a $ = V ^ ' ' ' ' =.( = % % % % ",
"% % % % % % % % % J ` 5.5.M # # % % % % % = = % $ O O O # # % % % % p C C C C C C r % % % = | ;.K % = V / &.&.&.&.*./ = % % % % ",
"= = = % # O O O % J ~ ` ` M # # % = = = % i r % $ O # # O # = = % % } CXAXAXAXAXZXx = = = = | %.K % = J / &.&.&.&.*./ # # = % % ",
"% J ] ( I e   . % J ! ~ ~ M & # = = = = = = = = $ O O O O $ = = = = K E.xXxXxXvXxX/ Y ) =.J O.;.} % = C / &.&.&.&.*.T o # = = = ",
"= Y 0X{.I.Y # . % J ! ! ! e & $ = = = % = > = = $ # # # # $ = = = 0 w w U E ~ 5.'.5.=.{.0XY $.2.} % O C #.*.*.*.*.*.| o # = = = ",
"= Y 1X].=.Y & . % J ! E E e & $ = = % # % = > > % # # # # $ > > > 0 w e U E ! ` '.5._ ].1XT +.<.| % O C #.-.*.*.*.-.| o # > < < ",
"= Y +XI.=.Y & . % J ! E E e & & > & . . . o % > % # # # # % > > > 0 w e U U E ~ 5.5._ I.+X| <.4.$.= O C #.-.-.-.-.-.| o & > < < ",
"> Y {.I.=.Y # . = J E E E e & & > & . . . . . % % # # # # % > > > 0 w H U U U ! ` ] _ I.{.| $.<.+.> o C #.-.-.-.-.-.| o # > > > ",
"> Y {.=.=.Y & . = J E E E e & % > & . o o . . o # O # & # % > > > w w H U U U E ~ ` _ I.{.%.4.%X4.r O C $.;.;.;.-.;.| O & > > > ",
"> Y ].=.=.Y & . # J ! E E e & % > % . . . . . . . . o # # # & > q w w H E U U U ! ~ _ =.].#.<.<.<.r O C $.2.2.2.2.2. .# # = > , ",
"> L I.=.=.Y * . . e ! E E M = = > & . . . . . . . . # $ O . # > 0 w w I U U U U E ~ =.*.I.;.4.4.4.i O C $.3.3.3.3.3. .# . o = , ",
", L U.*.*.T % o o M ! E ! M = > < = O # # # # # O O # & # . # , 0 w e I I I W W W ^ *.*.I.;.4.4.4.s O F $.3.3.3.3.3. .# o o & , ",
", L U.:.:.T * O o B ! ! ! J > i k i i i i i i i r % # & # O # , d g g p.g.g.g.m.M.n.-.:.U.2.1.1.4.s # [ >.4.4.4.4.4.+.$ O O $ , ",
", L U.U.U.| * o o B ^ ^ ^ J j P._._.).).).).).).!.k % % # o & < d g u.V.V.V.V.V.C.C.3.:.:.4.fXfXfX[ # [ <.4.4.4.4.4.+.# o o & , ",
", L U.:.U.| = O O V ( / / J l pXaXpXpXpXpXpXpXpXaXR = % O O & , p a K +.+.+.+.+.+.$.:.U.U.3.1.1.1.[ $ [ <.4.4.4.4.4.>.$ O O & , ",
"q } W.W.W.| = # O C #.#.#.J j P.(.(.(.(.(.(./././.R j j a a a j J J Y ( ( ( Q Q Q #.3.W.W.dXfXjXfX@.$ [ <.c.c.c.c.c.>.$ O O & q ",
"y } W.W.W. .= O O K $.$.T e e Y.^.K.^.T.Y.>X_ _ >X^.>X>XY.^.>X>XY.K.Y.Y.Y._ O.O.O.$.3.W.W.4.c.c.c...* { 1.c.c.c.c.c.>.$ O O $ y ",
"y } Q.Q.Q. .: # # [ <.<.P w e ~.>XK.,XY.) tX~.~.tXT.~.~.Y.T.>XtX>X>X>X>X>XT.+.+.+.$.4.Q.Q.dXjXjXjX,.* { 1.A.A.A.c.A.,.* # # $ y ",
"y } %X%X%X$.: # # [ <.<.} e e Y.T._ ,X,X>XtX>X^.^.^.T.Y.^.^.^.^.^.^.^.^.^.Y.+.>.>.<.Q.%X%XZ.S.S.S.,.: { z.S.S.S.S.S.,.* # # & y ",
"y  .dXdXdX>.7 # # { 1.1. .e B Q ^ ( >X,X>XtXtX,X^.=.Y.^.T.,X:X_ _ _ _ _ ( / >.,.,.1.dXdXdXfXS.S.S.h.7 { z.D.S.S.S.D.,.= # # & y ",
"u X.fXfXfX>.r % * { x.x.@.a C I.R.R.,XR.%.tX/./.yXtXyXyX,X4X,XU.,X:XR.tX:XU.,.z.1.z.dXfXdXjXjXlXjXv.t { x.D.D.D.D.jXh.r $ $ $ y ",
"u  .fXfXjX,.i r r ..n.n.@.C F 2.W.2.4X2X;.yXyX4X2XyXyXyX2X4X4XR.yXyX4XyXyX2Xz.x.x.x.fXfXfXS.N.N.N.x.t ..v.kXjXjXjXkXx.i : $ % y ",
"u o.jXjXzXc.f i i ..F.F.f.F F ,.z.z.5XyX5XyXyXyX4XyX5X3XyXyXyXiX3XQ.Q.yX&Xc.n.n.n.n.jXjXjXlXzXzXzXkXf ..v.kXF.F.kXkXv.s r : % y ",
"h o.lXlXzXjXo.X.x i.G.G.f.G G v.fXN.xX5XxXuXuXuXxXuXuX5XuXuXuXuXS.n.N.xXxXxXM.M.M.M.kXkXkXD.D.D.D.N.f ..n.mXmXkXkXkXN.{ i r > y ",
"h o.MXMXNXbXsXsXo.i.J.J.g.u.i.bXvXH.vXBXBXBXBXBXvXvXvXvXBXvXbXbXmXH.H.lXvXvXG.G.G.G.MXMXzXzXMXMXMXlXF ..N.mXmXmXmXmXkXo.x i r u ",
"h x j.j.sXsXL.L.x ..b.b.i.G i.j.l.b.l.k.k.k.k.k.sXb.b.b.l.l.l.l.b.b.b.l.k.l.d.d.d.a.s.s.j.j.k.j.k.k.x x i.j.a.a.a.j.a.o.v z i h ",
"l c b b b c l k k c v v c z z c c v c b c b c c c c c c c c c c v v v c c c v v v v b b b c c c c c l z c c c c c c c l l l l l ",
"-XwXeXeXeX;Xr.r.r.=XgXgX%X2.t.=X-X=X6X1X1X1X1X1X1X1X1X1X1X1X1X6X-X;X;X6X6X-XgXgXgXhXcXeXeXcXhXhXhXhX*X$X;XcXcXcXcXcX;Xr.r.r.r.-X",
"9XwXrXrXrX;Xy.y.y.*X=X=X$X:.:.+X1X{.1X1X<X1X1X<X1X<X<X<XOX<X<X<X+X+X+X<X<X{.$X$X$X=XeXrXrX;X;X;X;X=Xr.t.;X7X7X7X7X7X;Xr.w.w.r.-X",
"@XqXeXrXrX-Xr.r.r.*X*X[.[.[.XX1X1X1X1X+X+X1X+X+X+XXXe.XXe.e.}.#X].*.:.$X$X$Xt.t.t.$XwXeXeX;X=X=X=X*Xq.8.-X7X;X;X;X;X-Xq.q.q.e.@X",
"oX-XeXwXwX[.6.6.e.7.7.7.7.] e.XX@XXXq.q.q.q.q.e.e.q.q.e.q.q.e.@X[.&.&.*.7.7.7.7.7.[.wXwXeX-X$X$X$Xe.6.8.[.-X-X-X-X-X-X6.9.e.XXoX",
"oX-XwXwX6X[.6.6.}.].5.5.5.] 0.0.oX X0.0.0.0.}..X0.0.e.e.e.XX@X@X@X7.&.*.].].].|.|.|.6XwXwX@X8.[.[.}.6.7.[.-X-X-X-X-X@X6.0.oXoXoX",
".X.XoXoX X}.0.0. X].5.`.`.] 0.0. X.X.X.X.X.X.X.X}.0.0.0.0.}..X.X X XoX@X@X@X#X#X#XoXoXoXoX X7.8.}. X X7.[.#X#X#X#X-X@X}.}..X.X.X",
".X X X X.X.X.X.X.X}.5.5.5.5. X X X.X X.X.X.X.XoXoXoXoXoXoXoXoXoX.X-X7X-X@XoXoX@X-XoX X.X}.7.7.7.0.}. X7.[.#X#X#X#X-X#X.X.X.X.X.X",
" X X X X X X X X.X}.|.oX|.}..X.X X X X X X XoX7X7X7X7X7X7X7X;X7X-XnXCX7XnXnXnXnXCX-X X X}. X}.}. X X X7.].#X#X#X-X9X#X.X.X.X X X",
".X.X.X.X.X.X.X.X X.X@X#X#X#X.X}..X.X.X.X.X X.X@X@X@X-X@X@X@XoX@XoX@X-XoX@X@X-X-X@XoX X.X.X.X.X X X X X}.}.[.$X$X*XoXoX.X X X.X.X",
".X.X.X.X.X.X.X.X X.X.X.X.X.X.X X.X.X.X.X.X.X X X X X X X X X X X X X}. X X}.}.}.}. X.X.X.X.X.X.X X X X.XoXXXXXXXXXoXoX.X.X X.X.X",
".X.X.X.X.X.X.X.X.X X X X X X X.X.X.X.X.X.X.X.X.X.X.X.X.X.X.X.X.X.X.X.X.X.X.X.X.X.X.X.X.X.X.X.X.X X X X X.XoXoXoXoXoXoX.X X.X.X.X"
};
