/* XPM */
static char *_bfc711a78554d69c7cb3324a69e6d001kI6f5DIMKVIgh7i[] = {
/* columns rows colors chars-per-pixel */
"64 64 250 2 ",
"   c #010103",
".  c #01030B",
"X  c #07080C",
"o  c #010513",
"O  c #0A0714",
"+  c #020A15",
"@  c #0B0A15",
"#  c #01061C",
"$  c #0D071C",
"%  c #020B1C",
"&  c #0C0C1B",
"*  c #130F1A",
"=  c #04111D",
"-  c #09161F",
";  c #010724",
":  c #020C24",
">  c #0C0E23",
",  c #020B2B",
"<  c #0B0A2C",
"1  c #130C2E",
"2  c #041323",
"3  c #0C1223",
"4  c #061926",
"5  c #04132B",
"6  c #061A2C",
"7  c #0A1A2A",
"8  c #121324",
"9  c #141529",
"0  c #19192E",
"q  c #020C33",
"w  c #0B0D34",
"e  c #030E3B",
"r  c #0E0A3D",
"t  c #041434",
"y  c #0B1334",
"u  c #061B33",
"i  c #081D33",
"p  c #05123C",
"a  c #0B133C",
"s  c #071B3C",
"d  c #0A1D3C",
"f  c #181936",
"g  c #10133C",
"h  c #2B1536",
"j  c #241939",
"k  c #0A2233",
"l  c #0D2837",
"z  c #0A233C",
"x  c #0E293C",
"c  c #1A2236",
"v  c #25243A",
"b  c #25243C",
"n  c #0F0B42",
"m  c #110C45",
"M  c #1D0F47",
"N  c #130D4A",
"B  c #051443",
"V  c #0C1442",
"C  c #071B43",
"Z  c #0A1B49",
"A  c #141247",
"S  c #1B1946",
"D  c #13124D",
"F  c #19124E",
"G  c #040D54",
"H  c #030E5B",
"J  c #07135C",
"K  c #131653",
"L  c #1D1353",
"P  c #131955",
"I  c #121B59",
"U  c #1B1B58",
"Y  c #241B48",
"T  c #331B4F",
"R  c #221354",
"E  c #281857",
"W  c #361957",
"Q  c #0C2542",
"!  c #0E2A43",
"~  c #0D2248",
"^  c #0E2C4A",
"/  c #122D48",
"(  c #15374A",
")  c #13324D",
"_  c #0D2752",
"`  c #162659",
"'  c #16235C",
"]  c #123453",
"[  c #163958",
"{  c #163B5B",
"}  c #2C2B43",
"|  c #262549",
" . c #33324D",
".. c #2A2754",
"X. c #38275A",
"o. c #3A3856",
"O. c #0D1F62",
"+. c #2D1B62",
"@. c #331C64",
"#. c #0C2A62",
"$. c #1B2463",
"%. c #162965",
"&. c #1A2B64",
"*. c #183A65",
"=. c #1D336D",
"-. c #123576",
";. c #193976",
":. c #143B7C",
">. c #272568",
",. c #38256D",
"<. c #24366B",
"1. c #38336F",
"2. c #253976",
"3. c #4A1D4B",
"4. c #431C5A",
"5. c #4B245E",
"6. c #52235C",
"7. c #463C5B",
"8. c #471F67",
"9. c #491E70",
"0. c #562463",
"q. c #483667",
"w. c #4A326D",
"e. c #532476",
"r. c #573B70",
"t. c #682968",
"y. c #762C6B",
"u. c #663D6E",
"i. c #703875",
"p. c #1D4758",
"a. c #1B435D",
"s. c #204E5A",
"d. c #194264",
"f. c #1E4B65",
"g. c #1A446A",
"h. c #1D4A6C",
"j. c #1E4D74",
"k. c #19437B",
"l. c #1B427D",
"z. c #1F5178",
"x. c #244569",
"c. c #2E4F75",
"v. c #274778",
"b. c #235574",
"n. c #21547B",
"m. c #265C7E",
"M. c #2C647D",
"N. c #316A7D",
"B. c #4D425D",
"V. c #4B4464",
"C. c #584A6B",
"Z. c #5A4173",
"A. c #544D75",
"S. c #6A4770",
"D. c #685576",
"F. c #755A7B",
"G. c #883372",
"H. c #993A79",
"J. c #A63D7D",
"K. c #904E76",
"L. c #A95879",
"P. c #B1687B",
"I. c #163F81",
"U. c #2A3E80",
"Y. c #1A4584",
"T. c #1C4985",
"R. c #1D4D8A",
"E. c #1F508C",
"W. c #1F5292",
"Q. c #254B85",
"!. c #354E84",
"~. c #255B83",
"^. c #265886",
"/. c #21538D",
"(. c #385487",
"). c #215591",
"_. c #245B95",
"`. c #285E96",
"'. c #385C91",
"]. c #2A6487",
"[. c #326D84",
"{. c #2A6295",
"}. c #276099",
"|. c #2A659C",
" X c #2C6A9E",
".X c #386799",
"XX c #347698",
"oX c #2F5BA9",
"OX c #2967A0",
"+X c #2D6CA2",
"@X c #2F71A5",
"#X c #3570A5",
"$X c #3174A5",
"%X c #3D75A5",
"&X c #357BA7",
"*X c #3175A8",
"=X c #347BAC",
"-X c #505487",
";X c #685B8A",
":X c #795E83",
">X c #447C9D",
",X c #79608F",
"<X c #4D5DA3",
"1X c #635FA0",
"2X c #4177AA",
"3X c #447DB1",
"4X c #8A5681",
"5X c #A84180",
"6X c #B54382",
"7X c #886385",
"8X c #976889",
"9X c #906893",
"0X c #A86C86",
"qX c #B16E8C",
"wX c #C86B8B",
"eX c #D96E89",
"rX c #CB7686",
"tX c #E27387",
"yX c #3D8A93",
"uX c #3985AD",
"iX c #3780B0",
"pX c #3985B3",
"aX c #3B89B6",
"sX c #3D8DBA",
"dX c #3E90B7",
"fX c #3F91BC",
"gX c #4184AC",
"hX c #4398A9",
"jX c #4689B6",
"kX c #4696B8",
"lX c #4093BD",
"zX c #4AA6B5",
"xX c #3986C1",
"cX c #4398C2",
"vX c #439AC4",
"bX c #5295C6",
"nX c #4AA7C7",
"mX c #46A0C8",
"MX c #49A5CB",
"NX c #53ADCC",
"BX c #4AA7D3",
"VX c #4CACD3",
"CX c #4EB1D6",
"ZX c #54B9D9",
"AX c #65DEDC",
"SX c #5AC9E3",
"DX c #5FD0E6",
"FX c #69E5E1",
"GX c #A08586",
"HX c #E08788",
/* pixels */
"                                                                                                                              X ",
"                                                                                                                              X ",
"                                                                                                                                ",
"                                                                                                                              X ",
"                                                                                                                              X ",
"                                                                                                                              X ",
"                                                                                                                              X ",
". .                                                                                                     . . . . . . . . . . . O ",
"X X X X X X . . . X X .                                                                     . . . . . . . . . . . . . . . . . @ ",
"X X X X X X X X X X X . . . . . . . . . . . . . . . . . . . . . . . . . . . . . . . . . . . . . . . . . . . o o o + + + + + + @ ",
"O O O O O O O O O O O X O o o o . . . . . . . . . . . . . . . . . O . . . . . . . . . . . . o o o o o + + + + + + + + + + + + = ",
"& 8 & & @ @ @ @ @ @ O O O O o o o o o o . . . . . . . . . . . . . . . . . . . . . . . o o o o + + + + + 7 + + + + % % = = = = - ",
"x.`.%.d & & & & & & & & @ + + + o o o o o o o . o o o o o o o o o o o o o o o o o o o o + + + + + + % % k = % = = = = = = = = 4 ",
"sXW.:.%.8 * * * & & & & & & > > 3 3 2 2 2 # o o o o o o o o o o o o o o o o o + o + + + # # # % % % = 2 k 2 = = 2 2 2 2 2 2 2 7 ",
"xXI.:.-.d 8 8 8 > 3 > > & y #.k.pXsXsXsXsXd.# # o o o o o o o o o o o o + + # # # # # # % % % = 2 2 2 2 k 2 2 2 4 4 k l l 6 5 7 ",
";.$.$.$.D 9 8 8 8 8 3 3 3 g =.*XsXcXvXBXBXkX! # # # # # # # # # # # # # # # % % % % % % % 2 2 2 2 2 4 4 ( 4 4 4 4 4 [.NXnXx.n A ",
"N N N N N 0 9 9 9 9 8 8 9 m =.=X=XiXaXlXlXvX) # % % % % # # # # # # # # % % % % % : 2 2 2 2 4 4 4 4 4 6 p.6 6 6 6 / >XZXNXc.E W ",
"N N N N N f 0 0 0 0 9 9 9 m =.&X&XuXiXpXsXlX) % : : : % % % % % % % % % % % : 2 2 2 2 4 4 4 5 6 6 6 k x p.l 6 k k Q.oXoXU.E E E ",
"N N N N N f 0 0 0 0 0 0 0 m &.|.$X&XuXiXdXlX) : : : : : : : : : : : : : 2 : 2 2 5 5 5 5 5 d _ #.' g.hXhXzXyXs.x z R.oXoX;.F D F ",
"N N N N A f j f f f f f f A =. X@X*X=XpXsXfXa.5 2 2 2 2 : : : : : : : 5 5 5 5 5 5 5 6 6 u K I I P Q.ZXZXZXZXzX( x Q.oXoX2.N N F ",
"N N N N N j v v c c f Y A ' lXMXMXBXBXVXVXVXkX) 5 5 5 5 5 : : : : 5 5 5 5 5 5 5 6 u u u u ` P ' D v.mXmXmXMXfX( ! !.<X<X2.F N L ",
"N N N N A b v v v v v Y N &.MXCXVXVXVXVXVXCXBX[ t B B [ ~.m.m.m.m.m.m.].a.5 u u u i i i i ` U &.K 2.vXmXvXvXsX( ! (.<X<X1.N N F ",
"N N D D D | } b b b v Y N &.mXVXBXBXBXBXBXVXmX[ B H H /. X/.R./.R.R./.}.].u u u u i k z z A N N N 2.cXcXcXcXaX[ / -X1X1X1.F L F ",
"N +.2XjXjXkX>X} } b b | N &.vXMXMXMXMXMXMXMXvX[ B H G Q./.-.-.-.-.-.;.Y.~.u d d d z z z z A P K m ;.fXfXfXcXpXa.( -X1X1X1.N N F ",
"N ,.bXSXSXSXvX .} } } ..N &.vXmXmXmXmXmXmXmXcX[ B H H Q.R.-.-.-.:.:.;.Y.~.d z z z z z Q Q A &.' m =.sXsXsXlXiXa.( -X1X1X1.N F R ",
"N ,.bXZXZXZXkX .} } } ..N &.lXvXvXvXvXvXvXvXlX[ C H H Q.R.-.-.-.-.-.-.T.~.z z z Q Q ! ! ! D N N N =.pXaXaXsXuXa.[ -X,X,Xw.N N F ",
"N ,.bXCXCXCXkXo. . . ...N &.lXcXcXcXcXcXcXvXlX[ Z H H Q.R.-.:.:.-.:.-.T.~.z Q Q ! ! ! ^ ^ D N N m =.pXsXaXpX&Xa.p.;X9X9Xw.F F L ",
"N ,.jXVXVXVXkXo. . . .X.N &.sXlXlXcXlXlXlXlXsX[ Z H H T.R.:.:.:.:.l.:.R.~.Q Q ! ! ^ ^ ^ ^ K D N F =.=XpX=X=X$Xf.a.;X9X9Xr.N N F ",
"N ,.jXBXVXCXkXo.o.o.o.X.N &.aXfXsXsXfXsXsXfXaX[ Z H H T.R.:.:.:.:.:.:.R.~.Q ! ^ ^ ^ ) ) ) ` &.N <.=.*X=X=X=X$Xf.d.;X9X9Xr.N F L ",
"N @.jXmXmXMXjXV.o.o.o.X.N $.pXsXsXsXsXsXsXsXpX*.Z H H l.E.l.l.l.l.l.l.R.~.^ ^ ^ ) ] ] ] ] D D N A =.$X*X=X*X@Xh.x.:X9X9Xr.N N F ",
"N @.3XvXvXvXgXV.7.7.o.X.N $.pXaXaXaXaXpXaXaXpX*._ H H l.E.Y.Y.Y.T.T.Y.R.~.^ ) ] ] ] ] [ [ D N N N &.@X$X=X$X Xb.x.:X0X0Xr.D F F ",
"N @.2XcXcXcXgXV.7.7.7.X.N ' =XpXpXpXpXpXpXpX=X*._ H H l./.Y.T.T.T.T.Y.E.^._ ] ] ] ] [ [ [ D N N N &.=X&X+X+X Xb.h.7XqXqXu.N A F ",
"N +.%XfXfXfXuXV.V.V.B.X.N ' =XpXpXpXpXpXpXpX=X<._ H H ;./.T.R.R.T.T.T./.^.] ] ] ] [ [ [ [ K N N N &. X+X@X+X|.b.b.7XqXqXu.N N F ",
"N +.#XsXsXsX%XC.V.V.V.q.N ' *X=X=X=X=X=X=X=X*Xx.` H H ;./.R.R.R.R.R.R./.^.] [ [ [ { [ a.{ D K I m %.}.|.$X X{.b.b.7XqXqXu.F N L ",
"N E #XsXpXaX%XC.C.V.V.q.N ' $X*X*X*X*X*X*X*X$Xx.` H H ;._.E.E.E.E.E.E.).^.[ [ [ [ [ d.d.d.K D D N %.}.}.}.}.{.m.m.8XwXwXu.N N F ",
"N E #XsXpXpX%XC.C.C.C.q.F ' +X*X$X*X*X*X*X*X$Xx.' H H ;._._./././././._.^.[ [ [ *.d.d.d.d.K N N N %. X X_._._.m.M.8XwXwXi.R R R ",
"N E .X=X=X=X%XC.C.C.C.q.F ' +X@X@X@X@X@X@X@X+Xx.' H O.v.^.^.^._.=XMXMXMX{.*.*.*.d.d.d.g.g.P N K D $._._._._._.M.M.8XwXwXS.L R R ",
"N E {.=X*X=X%XD.C.C.C.q.N ' |.+X+X+X+X+X+X+X Xx.%.J I K K K I `.ZXDXDXDXNXb.*.d.d.g.g.h.g.P N P K $.).).).)./.].[.0XeXeXS.R E W ",
"N L `.*X*X*X.XD.D.D.D.w.N ' |.+X+X+X+X+X+X+X|.v.%.H N N N N n Q.ZXZXZXZXZX~.d.d.g.h.h.h.h.P N N N $.E././.E./.].[.0XeXeXK.E T W ",
"N L `.*X@X@X.XD.D.D.D.r.N I }.|.|.|.|.|.|.|.|.v.&.H N r N n n Q.2X3XVX.XcX~.g.g.h.h.j.b.b.U F F F $.R.R.R.R./.].[.0XeXeXK.W W W ",
"N L /.+X+X+X.XD.D.D.D.r.N I `.|.|.|.|.|.|.|.}.v.&.H n r N r r v.'..XMX2.pX~.g.h.h.j.j.b.b.' U L L $.R.R.R.R.R.].[.0XtXtXK.W W W ",
"N D /.+X|.OX.XF.F.F.F.r.N I _.}.}.}.}.}.}.}._.v.&.H N m N m m v.iXpXvX&XlX~.g.j.j.z.z.n.n.$.E R R $.Y.R.T.T.R.M.N.0XtXtXK.W 4.5.",
"N D /.|.$X&X.XF.F.F.F.Z.N I _._._._._._._._._.v.=.H N N N N m v.cXcXcXvXlX~.j.j.z.z.n.n.n.>.R R R $.Y.Y.Y.Y.] - 7 C.rXtXK.4.5.0.",
"N D Q.}.}.}..X:XF.F.F.Z.N I )._._._._._._._._.c.=.J I I I I P n.nXnXnXnXnX~.j.j.z.n.n.m.m.>.E E E >.Y.Y.Y.;.8   . #.7XHXK.0.0.0.",
"N D T._._._.'.7XK.:X:XZ.F I /.).).).).).).).).c.=.J I I I I P n.nXnXnXnXkX~.j.z.n.n.m.~.~.>.E +.E >.Y.Y.Y.;.X     #.:XHXL.0.0.t.",
"N D T.)._.).'.7X7X7X:XZ.F I /.).).).).).).)./.c.<.H N m N m n =.+X#X=X.X$X^.z.n.n.n.~.~.~.>.+.>.+.>.:.:.:.*..     _ ;XHXL.t.t.t.",
"N D l.).).W.'.7X7X7XF.Z.N P T.R.R.R.R.R.R././.c.<.H n r N r r =.v.Q.$X<.{.^.z.n.n.~.~.~.~.>.@.Y $ > 2 2 2 * *     & ;.0XP.t.y.y.",
"N D l.E.E.E.'.7X7Xr.R L N N K K K K K K $.R.R.c.2.H N r N n m =.Q.Q.+X;.`.^.XXhXhXhXhXhXhX!.E O                   + -.0XP.y.y.y.",
"N D ;.R.R.R.(.8XK.E N N N N N N N N N N N =.R.c.2.H N N N N N &.|.|.|.|.|.^.zXFXFXFXFXFXAX.XE M M M M M M $       + -.GXP.G.G.G.",
"N N U U $.Y.(.8X8XX.L R R L L L L L L L L $.T.!.2.J I I I I P l.uXuXuXuXuX].].].XXXXXXXX].1.@.T W T T T Y O       . #.7XP.G.G.H.",
"< < < < < _ !.8X0XX.5.K.K.X.N F F F F F F U T.!.2.J P P P P P ;.&X&XuX&X&X`.^.k.^.^.^.].v.,.8.4.4.4.4.4.h @ X       C (.0XH.H.H.",
"      X O u !.8X8XW 5.4X4XX.N N N m m m m K ;.v.<.G r r N r m %.2.2./.2.U.,.,.,.,.,.,.,.,.8.4XK.6.6.6.6.h           d (.qXJ.J.5X",
"      * } 5 x.D.F.Y g A A N N L 1 . . . . . + & & # O o r r r %.=.=.R.$.2.e.0.0.8.9.9.9.9.e.wXL.t.t.t.t.3.          d (.qX6X6X6X",
"      X @ 5 =.1.A.S r r r D N E 1             _ k.k.;.4 r A A %.k.l.R.;.2.i.K.K.i.e.e.e.e.e.rXP.y.y.y.y.3.          d c.qX6X6X6X",
": > > 3 > g ` P ` V e e g Y A V w # : : : : 5 _ *.*.*.Q ~ _ _ ] *.d.g.g.*.<.V.V.o...E L L R B.7.T T T T j % 8 0 0 9 a ` 7.6.6.6.",
", , , q y q B V V p e e e e e e q , , , , , , q e e e , e e e B B B Z B B V a V B B B B B B | S V V V V w , , , , , t Z | S S Y ",
"; ; ; , t q C V V p p a a e e e q , , , , q p t t q , , e e q p B B C p B p p e p p p p e p Y S r a r r w ; ; ; ; ; e C | S S Y ",
"; , , ; , q B V g w y f S y q q q q q q q e C Q C e e q e q q p C C C C C Q ! d ! ! Q ! d e a a w e e e q > ; ; ; ; q d b f g S ",
"q q q q q p p p g w q w w q q q q q , q q q s d s q q q q q q t Q Q Q Q Q ! ! z ! ! ! ! z t q q q q q q , ; ; ; ; ; q d f g g f ",
", , q t t t t t y , , , , , , , , , , , , q t s t , , , , , , t s s s s s z x ! ! ! ! ! ! t , , , , , , , ; # ; # : q f f w w g ",
"; ; , t t t t q q , ; ; ; ; ; ; ; ; ; ; , t t u t , ; ; ; ; ; , t t u t u k z x x x x x x t , ; # # # # # # # # # # , f 1 < < y ",
"; ; , 5 5 5 5 , , , , , ; ; , , , , , , 5 5 t t 5 ; ; ; ; ; ; , , , t ; 5 i i i i i i i u , ; # o o o o o o # o o # , 9 < < < < ",
"; ; ; , , , , , , , , ; ; : , 5 5 5 5 5 5 , 5 5 , ; # # ; # # : , , 5 : 5 6 6 6 6 6 6 6 6 ; ; : ; ; : : : % o o o # : 8 8 ; ; < ",
"# # ; : : : : ; ; ; ; : # # : : : : : : , , : 2 : # # # # # # : 5 5 5 5 5 4 4 4 4 4 4 4 5 : # : # # ; ; ; : o o o % > 8 > # # > "
};
