/* XPM */
static char *a009ff2136f94fd1831d1c479564f5bflfMHRKUMbxj2j8OM[] = {
/* columns rows colors chars-per-pixel */
"64 64 256 2 ",
"   c #110F2F",
".  c #12102F",
"X  c #120F34",
"o  c #140F3A",
"O  c #141233",
"+  c #181635",
"@  c #1A1837",
"#  c #16113B",
"$  c #1A153C",
"%  c #1D1B3B",
"&  c #201E3D",
"*  c #150F44",
"=  c #161043",
"-  c #1A1343",
";  c #1C1943",
":  c #16114A",
">  c #1B144C",
",  c #1C1A4D",
"<  c #1B1353",
"1  c #1E1B56",
"2  c #1C145C",
"3  c #251B48",
"4  c #211755",
"5  c #231C54",
"6  c #271B59",
"7  c #231A5C",
"8  c #311C56",
"9  c #1E2258",
"0  c #29215C",
"q  c #372257",
"w  c #1E1464",
"e  c #1F146B",
"r  c #141D69",
"t  c #161B72",
"y  c #241A64",
"u  c #261B64",
"i  c #21156D",
"p  c #251B6B",
"a  c #291C6C",
"s  c #351F63",
"d  c #221574",
"f  c #261C76",
"g  c #2B1C73",
"h  c #24167C",
"j  c #2B1D7B",
"k  c #301F7C",
"l  c #152377",
"z  c #272468",
"x  c #332569",
"c  c #292478",
"v  c #352579",
"b  c #383376",
"n  c #441B6A",
"m  c #472A6E",
"M  c #562E79",
"N  c #4E457C",
"B  c #241783",
"V  c #291A87",
"C  c #321C87",
"Z  c #281992",
"A  c #2B1A94",
"S  c #2B1A9B",
"D  c #381C97",
"F  c #162C8D",
"G  c #142C9B",
"H  c #292387",
"J  c #322184",
"K  c #37268A",
"L  c #2B368C",
"P  c #333788",
"I  c #2B2597",
"U  c #332697",
"Y  c #2D3A94",
"T  c #363998",
"R  c #2E1CA5",
"E  c #341DA3",
"W  c #321DAB",
"Q  c #381EB8",
"!  c #1935AF",
"~  c #2C2CA4",
"^  c #2D2AAA",
"/  c #3628AA",
"(  c #2737A4",
")  c #3737A9",
"_  c #3927B6",
"`  c #3838B6",
"'  c #46378B",
"]  c #46289A",
"[  c #4E3091",
"{  c #653288",
"}  c #713495",
"|  c #431EA8",
" . c #451FB2",
".. c #482BA8",
"X. c #552AA6",
"o. c #4723B8",
"O. c #4437B8",
"+. c #5331B0",
"@. c #6F31B2",
"#. c #364C93",
"$. c #2D4FA9",
"%. c #3647A8",
"&. c #364EB5",
"*. c #3948B7",
"=. c #335BB4",
"-. c #3954BB",
";. c #53458A",
":. c #544792",
">. c #5D5297",
",. c #64508F",
"<. c #7E598B",
"1. c #5A678D",
"2. c #6A6892",
"3. c #746894",
"4. c #647496",
"5. c #504DB3",
"6. c #6C50B1",
"7. c #4A6FB8",
"8. c #786BAF",
"9. c #371FC5",
"0. c #3B23C5",
"q. c #3C39C5",
"w. c #3433D4",
"e. c #4927C7",
"r. c #5B25CB",
"t. c #5628C8",
"y. c #4E31CD",
"u. c #662ACA",
"i. c #762CCD",
"p. c #3C4BC3",
"a. c #3A56C4",
"s. c #3E53CC",
"d. c #3955D7",
"f. c #3E6CCD",
"g. c #3E66E1",
"h. c #454AC7",
"j. c #5144CA",
"k. c #4154CD",
"l. c #455ACA",
"z. c #5655CB",
"x. c #4455D2",
"c. c #4A56D5",
"v. c #4B5AD5",
"b. c #5759D7",
"n. c #6D52D2",
"m. c #4966C8",
"M. c #546EC8",
"N. c #4A69D6",
"B. c #5765D6",
"V. c #516FDE",
"C. c #4B75D7",
"Z. c #5271DF",
"A. c #5977DD",
"S. c #6D6FD0",
"D. c #6964DC",
"F. c #495CE1",
"G. c #6D51E2",
"H. c #4A71E5",
"J. c #5673E0",
"K. c #6B64E2",
"L. c #786BE2",
"P. c #6679E1",
"I. c #777AE4",
"U. c #8D2A9B",
"Y. c #8A339B",
"T. c #88399B",
"R. c #91339B",
"E. c #8E31AE",
"W. c #9539A6",
"Q. c #8B4B8C",
"!. c #87538B",
"~. c #974796",
"^. c #934F92",
"/. c #876996",
"(. c #9A47A9",
"). c #9B54B3",
"_. c #A651AD",
"`. c #A857B4",
"'. c #856FAD",
"]. c #AB67B8",
"[. c #B269BA",
"{. c #AE71B8",
"}. c #C07EBF",
"|. c #9135C8",
" X c #8F34D0",
".X c #A43AD4",
"XX c #B23BE5",
"oX c #C93FE2",
"OX c #8E4ECE",
"+X c #AD53CF",
"@X c #8D73D4",
"#X c #B768C5",
"$X c #B678C7",
"%X c #AF72D5",
"&X c #886AE3",
"*X c #8976E7",
"=X c #9779EA",
"-X c #A57BEC",
";X c #B77BE1",
":X c #C454DC",
">X c #C776D8",
",X c #C745E7",
"<X c #D75BEB",
"1X c #CC68E9",
"2X c #C677E7",
"3X c #E066F0",
"4X c #428DC5",
"5X c #4588D7",
"6X c #518ED2",
"7X c #4998D8",
"8X c #6F8BD4",
"9X c #4DA5DB",
"0X c #54A8D6",
"qX c #54B7D8",
"wX c #64ACDB",
"eX c #5B92E2",
"rX c #7884E5",
"tX c #6E91E4",
"yX c #54B1E2",
"uX c #71B0E6",
"iX c #57C2DB",
"pX c #5EC5E8",
"aX c #70CFEA",
"sX c #928CBA",
"dX c #8F8ED6",
"fX c #B488D2",
"gX c #80A3DB",
"hX c #AEABD4",
"jX c #8685E6",
"kX c #9988E9",
"lX c #9398EB",
"zX c #A687EC",
"xX c #B38FEF",
"cX c #B599ED",
"vX c #8DADEC",
"bX c #B0AAEE",
"nX c #C88CD6",
"mX c #D2A6DA",
"MX c #C688E8",
"NX c #D18EE5",
"BX c #C899E5",
"VX c #D296E7",
"CX c #CEAFEE",
"ZX c #E6A1F6",
"AX c #8CCFEE",
"SX c #AFCCEE",
"DX c #85F4FB",
"FX c #C0C3D5",
"GX c #D0CDF1",
"HX c #D9C8F4",
"JX c #C6D9F3",
"KX c #E6D2F5",
"LX c #D2E8F7",
"PX c #E9E7F9",
"IX c #F4E9F8",
"UX c #F5F5FC",
/* pixels */
"                                                                                                                                ",
"                                                                                                                                ",
"                                                                                                                                ",
"  X X     O X                             O O O O                                                                               ",
"X X X X X X X                           O + % 3 3 O                                     X X                           O         ",
"X X X O O X X X                       O $ 3 3 q q 8 O                                                                 X         ",
"X X X X X # 9 z z ,                 O % 3 q q n m m 3 X X X X X X                                                   O O O O O O ",
"o o o o o = Y %.%.L $             O $ 3 q q m m M M 8 X X X X X X X X X X                           X   O O O O O O O O O O + @ ",
"o o o o o > T %.%.%.z X           O 3 q q m M M { { 8 X X X X X X X X O X X X X X               . O O O O @ @ @ @ @ @ @ @ @ @ @ ",
"= = = = # 1 %.%.%.%.Y ; X X   X X $ 3 q m M { { } { - X X O X X X X X X X X X X X X           O O O @ @ @ % % & & % % % % % % % ",
": : : : : 7 *.*.%.*.&.c O X X X X O 3 n M M { } } q X X X X X X X X X O X X X X X X X X       O O O @ @ @ % % & & & % % % % % & ",
": : : : : z *.*.*.*.s.%., X X X X X # 8 M { { { x # X X X X X X X X X X X X X X X O O O O O O O O O @ @ @ @ @ % % % % % % % % % ",
"< < < < : c *.*.*.*.s.p.L # X X O X X X 3 8 8 - X X X X X X X X X X X X X X X X O O + @ + @ @ @ @ @ @ @ @ @ @ O O @ + @ @ @ @ @ ",
"< 2 2 2 < H h.h.*.*.p.s.%.9 X X X X X X X X X X o o o o o o o o o # # # # # X X O + + @ % % & & % , % @ @ + O O O O O O O O + + ",
"2 2 w 2 2 L h.h.p.p.x.s.s.L = X X X X o o X o o o o o o o o o X 1 %.%.%.5.6.x X O + $ % % 3 3 & % 9 ; + + + O O     O . O O O O ",
"w w w w w T h.h.h.h.k.x.s.&.z o o X X X o o o o o o o o o o o o z N.V.J.jXkX:.X # $ % ; 3 3 3 ; % l ; + O O O X X             . ",
"e e i e i O.z.z.z.l.k.x.s.s.Y : o o o o o o o o o o o o o o o o z N.V.Z.jXkX6.o o # $ $ % ; ; - - F : # # X X X X X             ",
"d d d d d 5.b.b.z.z.v.x.x.s.*.1 # # # # # # # # = = o o o o o o z N.J.Z.I.kX8.# o # # # # # = : r G l : : # X X O X X X         ",
"h h h h B z.D.b.b.b.c.v.x.k.s.c - - - - - - - - - , z z z z 1 o z m.J.Z.I.kX@X3 # # # = = = : t ! ! ! l : o o o o X : =         ",
"B B B B A n.D.D.D.b.b.c.x.k.s.) , ; ; ; ; ; ; ; ; b N.N.N.N.Y * z l.Z.V.P.kXkX0 * = : : : : c ) ` ` ` ` H > = # o o : e X       ",
"V Z Z A / D.L.K.D.D.b.v.x.x.s.%.0 3 3 3 6 6 3 3 , #.J.Z.J.J.#.: z a.V.V.P.jXkXb * : < < < < p +.j.5.j.5.v < : : = o < B # X     ",
"Z Z S R ..L.L.L.L.D.D.v.c.x.k.p.z 5 5 0 ] z 5 5 5 5.J.V.Z.V.Y : z -.V.Z.J.jXkX:.: 2 S E i 2 2 a O.5.O.c < < : : : = w V = X X   ",
"S R W / O.&X&X&XL.L.D.b.c.x.x.s.P 6 5 x ] z 5 5 7 7.J.Z.V.V.Y : z -.V.Z.Z.jXkX>.< w Q o.h w e e Y 5X=.w w 2 < < : w Z V = X X X ",
"_ _ _ _ y.*X*X*X&XL.L.b.v.x.x.s.) 7 5 a ] u 5 5 z M.J.Z.V.N.L : z &.N.V.V.I.kX8.w i  .o.V d h d #.wX7.d e w 2 < w Z S V : X X X ",
"e.e.e.e.n.=X=X=X*X*XL.b.v.c.x.k.%.u 4 a U u 4 1 c A.P.Z.Z.N.L < c &.N.V.Z.I.kX@Xp d  .e.o.o.E B %.0X7.h V V e w e A S V : o X X ",
"e.e.t.e.n.-X=X=X=X*XI.b.v.c.x.k.p.c 2 p A p 2 2 P P.P.V.V.m.L w U &.m.Z.Z.P.kX@Xv h o.t.r.r.t.A 5.6X7.V D o.h i V S S B : # # X ",
"t.y.e.e.n.-X-X=X=X*X*Xb.b.c.x.k.s.H 2 i V w 2 2 T P.P.V.Z.l.L i _ &.l.Z.Z.P.kXkX' h o.r.r.r.r.E 5.6X7.A E o.V Z R S Z B < = o X ",
"y.e.e.0.G.zX-X-X=X=X*XD.b.c.x.x.s.T w w d i d i 5.rXP.V.V.a.L d _ &.a.V.V.A.jXkX[ V o.r.r.u.r.o.5.6Xm.S E o.S W R S Z B i : # o ",
"F.w.9.9.&XxXzXzXzX=X=XK.b.v.x.k.s.%.e w w C o.D 5.rXP.Z.V.-.) D _ &.-.V.V.A.jXkX6.C o.r.r.r.u.r.z.6Xm./ W e.R W R S V h i < = o ",
"H.H.d.0.&XxXxXzXzXkXkXK.b.v.x.k.s.*.f w 2 C o.U S.jXP.Z.N.-.`  ...&.-.V.Z.Z.jXkX6.C o.t.r.r.r.r.z.6Xm._ Q e.W W R Z B d e < : # ",
"H.H.H.F.*XxXxXxXzXzXkXL.b.b.v.x.k.a.H d d D o...I.jXA.V.N.&.` | ..&.-.N.Z.Z.I.kX@XD o.t.t.r.r.r.z.M.m.o.Q 0.W W S Z B d w < : = ",
"( a.H.H.H.I.xXBXcXcXcX*XB.B.B.v.l.l.)  . .o. .+.*XjXA.Z.N.&.) | / &.&.m.Z.V.I.kX@X..o.t.t.r.r.r.z.M.m.o.Q Q W R S V h i w < : = ",
"' H ( a.g.g.V.rXlXvXvXrXZ.V.N.N.m.f.a.o. .o. .5.kXjXZ.Z.l.&.) D / &.&.l.V.V.P.jXkX+.+.t.t.r.t.r.h.-.-.e.Q Q W R S V h d w < : : ",
"{.} [ H ( a.g.g.Z.tXvXuXJ.C.C.N.N.f.f...| | | n.kXjXV.V.l.&.) D U &.&.l.Z.Z.P.jXkX6.+.t.t.r.t.t.h.=.-.e.9.Q Q W S Z B d w 2 : : ",
"{.].Y.Y.6.#.( a.d.g.eXAXtXtXC.C.C.f.f.) | | | n.zXI.V.V.l.-.) D ) 5.-.m.J.J.P.jXzXn.@.@.@.i.@.@.6.5.5.@.t.Q Q W S Z B d e 2 < : ",
"{.fX(.U.(.$X6.) &.N.tXLXUXJXuXeX7X5X5X&.D D ] @XzXI.V.V.k.a.` D ..m.m.m.P.rXrXkXcX@XE.`._._.~.R.R.~.~.~.`.+._ W R A B h e 2 < : ",
"{.nXnX).W.(.$XY.:.7.0XLXIXJX5X5X5X5X5X=.D D ] @XzXP.Z.V.k.k.` E O.N.N.N.rXjXjXlXcX-XOX#X[.`._._._.].[.}.mX{.n.t.o.E Z h i 2 < : ",
"T.T.fXfX{.].{.[.W.vXDXLXIXJX7X5X5X5X5Xf.K C ] kXzXP.Z.N.c.c.O.| O.C.C.C.rXlXlXlXbXxXOX#X#X#X~.Q.^.^.^.^.].^.Q.} E A B h i 2 < : ",
"T.Y.(.{.W._.{.mX[.).AXLXIXJX7X7X5X5X5X5XT j [ zXkXA.Z.N.z.b.j. .j.A.A.C.rXlXlXbXbXBX+X#X>X>X`.^.Q.^.^.Q.^.Q.Q.Q.{ C B d i 2 < : ",
"T.Y.Y.{.(.U.U._.nX$XhXJXIXJX7X7X7X7X5X5X%.g >.xXkXA.Z.N.n.D.n.+.j.eXtXtXlXbXbXSXCXCX%X>X>X>X[.`.^.!.!.!.!.!.!.!.!.,.J d e 2 < : ",
"T.Y.Y._.].U.U.U.#X+X).mXIXJX9X7X7X7X7X7X7.g 6.cXkXA.Z.z.L.&XOXi.n.vXPXUXUXUXUXPXCXKXVXVXNXNXnX$X].).<.<.<.<.<.<././.,.v w 2 : : ",
"T.Y.Y.W.{.W.U.U.).%XE.+XKXJX9X9X9X9X7X7X5Xc '.cXjXA.Z.z.OX&Xn.t.y.D.HXHXHXHXKXFX8.CXMXMXNXNX>X#X#X[./.3./.3.3.3.3.3.3.,.u < : : ",
"`.(.W.W.{.(.U.U.E.%X+XE.CXJXyX9X9X9X9X9X7XP @XcXrXJ.A.m.y.w.w.w.w.w.w.y.y.h.h.) 6.CXCXNXNXNX$X$X$X$X{.3.3.3.2.3.2.2.2.2.N < : = ",
"fX{.$X$XmXnX`.`.OX%X2X|.nXJXyXyXyX9X9X9X9X7.kXcXrXP.eXB.L.jXL.L.G.G.G.G.G.K.K.h.S.HXHXVXNXNXfXfX$X$X$X'.4.4.4.4.4.4.4.4.1.0 : o ",
"T.Y.R.(.BXmX#XBXBXmXKXVXCXSXaXpXyXqXqXqXqX6XcXcXrXtXeXeXbXPXHXCX-X-XMXMXCXHXGXjXjXHXKXCXVXVXfX%X8.6.6.>.#.#.#.#.#.#.#.#.#.z : o ",
"T.T.Y.U.} $X|.|.|.OXBX+XfXwXqXqXqXqXqXqXqXuXbXbXgXvXAXAXJXUXKXKXcXCXKXKXPXPXPXSXbXGXLXHXVXVXfX5.G G G F F F G G G G F l l l r = ",
"T.T.Y.Y.} fXOX|.|.|.fX|.@.8XqXqXqXqX0XqXqXqXbXbXtXuXaXaXLXUXPXGXcXCXKXFXUXUXUXJXhXGXLXGXCXdXdX5.! ! ! ! $.m.&.! ! ! ( $.$.G r # ",
"T.Y.Y.W.@.fX%X|.|.|.fXOX@.8XiXiXqXiX4XqXiXiXgXI.7.A.wXwXSXKXhXN ;.8.2.x 3.hXhXdXM sXhX3.;.x m ' ~ ~ ~ ` ` ` ) ` q.s.x.B.z.h.K 8 ",
"W.(.+X+X6.fX;X.X.X.XMX+XE.jXaXaXuXuX8X8XdXdX@XOXOXOX&X@X@XrXS.5.5.S.S.S.S.8X8X8Xz.z.z.+.X.X.X.i.i.i.i.i.i. X X X@.@.@.X.X.[ n n ",
"#XnXMX2X+X2X1X,XoXoX<X:X+X2XcXBXMXMX>X1X:X+X%XOXn.n.B.A.eXuX8X8X6XeXeXeXeXwXuXuXA.v.m.5.+.X.+.u.u.u.u.u.u. X.X X@.6.@.@.X.k : X ",
"<X<X<X<X1X1X1X2X2X2X2X2X2XMXVXMXMX;X@XS.S.M.m.q.q.q.h.c.V.8XM.7.M.C.C.C.C.C.6X5Xp.q.` +.X.X.X.+.X.X.X.] ] ] X.[ [ [ ' m n 6 o X ",
"HXGXGXJXJXGXCXBXMX2X1X:X+XOXn.5.5.5.*.%.*.&.*._ ` ` q.q.h.l.5.5.5.l.l.m.m.N.C.C.h.h.O.+.+.X.X.X.] ] [ ' v v v v x x s q 8 - X X ",
"LXPXKXZXZX3X<X,XXX Xi.u...I ( ( ( ) ) ` ` ` ` ` O.O.q.q.q.p.) ) ) *.p.p.*.p.p.*.` ^ U K K K K K v v v v x x x x 8 8 5 5 3 # X X ",
"3X<X,XXX Xi.u.r.e.e.e.e.o.I ~ ~ ~ ~ ~ ^ ` ) / ` O.O._ _ ` ` ) T T ` ` ` ` ` ` ` ^ I V v K ' [ ' ' v x z 0 0 6 5 5 3 3 3 $ O X X ",
"u.t.e.0.0.0.0.0.0.0.e.e._ I I ~ ~ ~ ^ / ) U U / / / _ _ _ ` U K U / ^ ^ ^ ^ ~ ~ I H g x x x x x x x x x b b x x 0 5 3 - # # X X ",
"S S R W W Q Q _ _ _ _ 0./ I I ~ ~ / / ) ` ] ] ../ _ _ _ _ / U K U ~ ~ ~ I I I H H j p u u u 7 7 7 u z x x x x 0 5 3 - # # # X X ",
"B V V Z Z A S R E W / / V H H H I I I I I V j I I I U U U U U C J U U I H H H H c f u u 7 7 5 5 5 5 4 > , ; - - - # # # # # X X ",
"i d d h h j V V V A A U v c H H H H I I H g j J H H U U U U J C J U J H J V c j f p a a x x u 4 < > > > - - - - # # o o # # O X ",
"2 u u u i i d d f j j v b c f f f c H H c a g j V V J J J J J C J C J V j j g p p p a a x x u 4 < > > > - - - - # # o o # # O X ",
"< 1 1 2 2 7 u u p p p u x z e p f f f c f a a c j c c J J J J k v ' ' K c g a x x u 7 4 7 4 4 < < > > > - - - - # # # o # # O X ",
": : : < < 1 1 7 7 7 7 5 x u w p p p f f p u b ,.>.>.>.>.>.>.>.>.' sXsX8.8.8.3.'.3.u u 7 7 5 4 4 < > > , - - - - - # # # # # O X ",
"- - : : > > > < 1 1 > 5 0 7 u u u p p p u u x ;.' ;.>.' :.' ' >.' >.:.' :.>.2.,.;.u u 7 4 4 4 4 > > > , > - - - - # # # # # O X ",
"= - - - - : > > > > : > 6 4 7 u u u p p u u a a g j v k k J J J J v j j j g a p u u u 7 4 4 4 4 < > > , , - - - - # # # # # O X ",
"o # # - - - - > : : : > 5 4 4 7 u u p u u u a a g j k v J J J J J J v v j g a a a u u 7 7 4 4 4 < > > , , - - - - # # # # # O X "
};
