/* XPM */
static char *_e8e07a79bb64fe3d3c2de26aadc8d162iHzm9YvHFCkCvIg[] = {
/* columns rows colors chars-per-pixel */
"64 64 214 2 ",
"   c #241F47",
".  c #2D1B44",
"X  c #211F48",
"o  c #371640",
"O  c #381741",
"+  c #341942",
"@  c #3B1B43",
"#  c #371A48",
"$  c #3C1A4A",
"%  c #371F52",
"&  c #07264E",
"*  c #0A274E",
"=  c #0D2A4F",
"-  c #15264C",
";  c #1D234A",
":  c #14284E",
">  c #1B2B4E",
",  c #0E2B50",
"<  c #132D51",
"1  c #1A2850",
"2  c #153153",
"3  c #1B3553",
"4  c #1D3854",
"5  c #153658",
"6  c #193459",
"7  c #163A5B",
"8  c #1C3C5B",
"9  c #2E2246",
"0  c #222148",
"q  c #2E244B",
"w  c #232A4E",
"e  c #3D2145",
"r  c #35254A",
"t  c #252957",
"y  c #312154",
"u  c #233553",
"i  c #233B54",
"p  c #2A3D53",
"a  c #203E5D",
"s  c #383658",
"d  c #193E60",
"f  c #213F60",
"g  c #411F42",
"h  c #431A51",
"j  c #422146",
"k  c #44254B",
"l  c #47284E",
"z  c #48294E",
"x  c #422D55",
"c  c #4C2D52",
"v  c #473757",
"b  c #4E3154",
"n  c #4F3E5E",
"m  c #513456",
"M  c #543758",
"N  c #543859",
"B  c #5A3D5D",
"V  c #5C3F60",
"C  c #1A415F",
"Z  c #2C4255",
"A  c #23425D",
"S  c #2B445A",
"D  c #2C495D",
"F  c #334656",
"G  c #364857",
"H  c #384A57",
"J  c #31475B",
"K  c #334C5C",
"L  c #3D4E59",
"P  c #37515E",
"I  c #3E515B",
"U  c #1C4563",
"Y  c #1F4A65",
"T  c #1D4768",
"R  c #1F4B6A",
"E  c #234561",
"W  c #294661",
"Q  c #234B65",
"!  c #2C4A63",
"~  c #224E6C",
"^  c #2D4B6A",
"/  c #3B4664",
"(  c #324D63",
")  c #334E6A",
"_  c #3C4C6A",
"`  c #2C5166",
"'  c #24526C",
"]  c #2A556B",
"[  c #2B5A6E",
"{  c #355263",
"}  c #3A5463",
"|  c #3F5865",
" . c #34526E",
".. c #39526E",
"X. c #345B6B",
"o. c #3C5E6C",
"O. c #374C72",
"+. c #245472",
"@. c #2B5B73",
"#. c #285874",
"$. c #275A79",
"%. c #295D7A",
"&. c #365571",
"*. c #395672",
"=. c #355C72",
"-. c #3B5A74",
";. c #2F6577",
":. c #2B617E",
">. c #356473",
",. c #396472",
"<. c #3B6976",
"1. c #386A7E",
"2. c #3C727D",
"3. c #414A5B",
"4. c #5B4259",
"5. c #42525A",
"6. c #49575A",
"7. c #4D5A5C",
"8. c #525E5C",
"9. c #56615D",
"0. c #5B645E",
"q. c #60675E",
"w. c #62695F",
"e. c #474364",
"r. c #444D69",
"t. c #5F4262",
"y. c #425663",
"u. c #445964",
"i. c #4E5E62",
"p. c #40526E",
"a. c #47596C",
"s. c #565968",
"d. c #435A76",
"f. c #614564",
"g. c #664C69",
"h. c #66526E",
"j. c #6D536F",
"k. c #6E536F",
"l. c #72576D",
"z. c #486068",
"x. c #556262",
"c. c #5A6561",
"v. c #586C6A",
"b. c #426D76",
"n. c #4C6E73",
"m. c #44737A",
"M. c #4D737A",
"N. c #47787C",
"B. c #4B7B7D",
"V. c #577575",
"C. c #547D7C",
"Z. c #646B60",
"A. c #696E61",
"S. c #6E7262",
"D. c #727563",
"F. c #767863",
"G. c #7C7D65",
"H. c #627B75",
"J. c #54817E",
"K. c #59847F",
"L. c #768978",
"P. c #848366",
"I. c #898667",
"U. c #8C8967",
"Y. c #8D8968",
"T. c #908B67",
"R. c #938D69",
"E. c #96916A",
"W. c #9B946B",
"Q. c #999A74",
"!. c #A0976C",
"~. c #A3996D",
"^. c #2C6580",
"/. c #2F6985",
"(. c #336B85",
"). c #3C6881",
"_. c #316D89",
"`. c #377486",
"'. c #34738D",
"]. c #397F8E",
"[. c #377791",
"{. c #3B7B93",
"}. c #457987",
"|. c #4B7C80",
" X c #417D95",
".X c #39808E",
"XX c #3E8897",
"oX c #3D859E",
"OX c #3F8AA2",
"+X c #4F8082",
"@X c #4B818E",
"#X c #578481",
"$X c #5A8581",
"%X c #5D8D8E",
"&X c #46869A",
"*X c #418F9B",
"=X c #558B92",
"-X c #4F9095",
";X c #41909B",
":X c #5B9396",
">X c #7FA390",
",X c #418DA5",
"<X c #4392A2",
"1X c #4799AE",
"2X c #499CAC",
"3X c #599FA4",
"4X c #489CB1",
"5X c #4AA1B3",
"6X c #4DA5B9",
"7X c #4EA9BD",
"8X c #51A4B5",
"9X c #61A8A9",
"0X c #96A987",
"qX c #80A390",
/* pixels */
"O O O O O O O o o O O O O O O O O O O O O O O O O O O O O O O O O O O O O O O O O O O O O O O O O O O O O O O O O O O O O O O O ",
"O O O O O O o O o o O O O O O O O O O O O O O O O O O O O O O O O O O O O O O O O O O O O O O O O O O O O O O O O o o O O O O O ",
"O O O O o o @ j @ O o O O O O O O O O O O O O O O O O O O O O o o O O O O O O O O O O O O O O O O O O O O O O O o o o o O O O O ",
"O O O o O @ j l l $ @ o O O O O O O O O O O O O O O O O O o o O O o O O O O O O O O O O O O O O O O O O O O o o @ c c @ o o O O ",
"O O O o @ l l l l l j @ o O O O O O O O O O O O O O O O o o @ j @ O o O O O O O O O O O O O O O O O O O O o o @ c t.t.m @ o o O ",
"O O O o @ @ @ @ @ @ @ O o O O O O O O O O O O O O O O o O @ l l l j @ o O O O O O O O O O O O O O O O O o O j M t.t.t.t.N j O o ",
"O O O O o o o o o o o o O O O O O O O O O O O O O O O o O @ j j j j @ o O O O O O O O O O O O O O O O O o @ N t.t.t.t.t.t.B @ o ",
"O O O O O O O O O O O O O O O O O O O O O O O O O O O O o o o o o o o O O O O O O O O O O O O o o O O O o @ j l l l l l l k @ o ",
"O O O O O O O O O O O O O O O O O O O o o o O O O O O O O O O O O O O O O O O O O O O O O o o O o o O O O o o o o o o o o o o O ",
"o O O O O O O O O O O O O O O O O O o o O O o O O O O O O O O O O O O O O O O O O O O O o o @ j @ O o O O O O O O O O O O O O O ",
"o o o O O O O O O O O O O O O O O o O l M c @ o o O O O O O O O O O O O O O O O O O O O o @ k l l @ o o O O O O O O O O O O O O ",
"z e O o O O O O O O O O O O O O o O j V t.t.c @ o o O O O O O O O O O O O O O O O O O O o @ @ @ @ @ O o O O O O O O O O O O O O ",
"N M l O o O O O O O O O O O O o @ c B t.t.t.B M @ o o O O O O O O O O O O O O O O O O O O o o o o o o O O O O O O O O O O O O O ",
"M N M j o O O O O O O O O O o @ M t.t.t.t.t.t.f.B j o O O O O O O O O O O O O O O O O O O O O O O O O O O O O O O O O O O O O O ",
"N M N c O o O O O O O O O O o @ m N M M M M M M M j o O O O O O O O O O O O O O O O O O O O O O O O O O O O O O O O O O O O O O ",
"N N N c @ O o O O O O O O O O o O @ @ @ @ @ @ @ @ O o O O O O O O O O O O O O O O o o O O O o o O O O O O O O O O O O O o o o O ",
"N N N M b l @ o o o O O O O O O o o o o o o o o o o O O O O O O O O O o o O O O o @ $ + + + $ O o O O O O O O O O O O o O h O o ",
"N N M N N M l l k @ o O O O O O O O O O O O O O O o o O O O O O O O o g j o O O o # t : - 1 y o O O O O O O O O O O O O O $ O o ",
"N N N N N N M N N b @ o O O O O O O O O O O O O o O O o o O O O O O O O + O O O O   = , , , : + O o o o O O O O O O O O o . o O ",
"N N N N N N N N N N k o O O O O O O O O O O O o O @ j @ O o O O O O O . . O O O + > 3 , 2 4 2   O @ @ O o O O O O O O O o . O o ",
"M M N N N N N N N M j o O O o o o o O O O O o O @ l l j @ o O O O o O . 0 O o O . p Z.< 8.Z.9.; @ l l @ O o O o o O o O o   O O ",
"t.N M M N N N N N M j o o o o @ @ o o O O O o O @ @ @ @ @ o O O o @ e 0 ; @ g O . p A.Z.Z.5., w l l l l j @ o O s / / r o 0 + o ",
"k.g.B M N N N N N N M k l l l b b @ o o o o o o o o o o o O O o O + w = = > r O . p Z.i 9.9.L w l l l l l j O r *.-.-.s o ; + O ",
"k.k.g.N M N N N N N N M N N M N N c j @ O @ @ O o O O O O O O o o X * * * * - o . p Z.Z H 7.9.; @ @ @ @ @ @ @ / -.-.-...q - . O ",
"k.k.k.B M M N N N N N N N N N N N N M c c m b x $ O O O O O O $ + u 9.0.0.0.F . . p A.A.4 Z 0.; g e . . . . . / d.-. .8 < = : - ",
"k.k.k.g.f.N M M M N N N N N N N M N N N N N N e.t - : : : : 1 % + p A.D.S.D.L W ( Z A.A.u F 0.; @ > 3 : < 2 : 4 -. .5 = = , , , ",
"k.k.k.k.k.f.N N N M N N N N N N M 4.v s 4.N N _ < & 8.E.R.E.F.9 + p S.D.D.D.L ^  .S Z.2 7.0.9.; + > Z.2 L 8.= 2 &.f * = = = = = ",
"k.k.k.k.k.s.p.p.r.N M N M M M M M v < = s n r...K 9.F.R.P.G.D.9 + p S.D.D.D.L ^  .Z Z.6.Z 5.9.a ( 4 Z.9.0.8.* 2  .D i i p p p u ",
"k.k.k.k.h.d.-.-.-.e.M M M n n n B v < = s a.-.&.x.W.U.I.F.Z.S.9 + p D.F.F.F.5.^  .Z Z.6.Z 5.9.a  .4 Z.q.Z.0.5.3  .L F G K G G Z ",
"k.l.h.h.s.d.-.-.-.r.N M N p.-.-./ u , = 2 ( -.&.x.R.4 & * * * . + p S.D.D.D.L ^  .S Z.= 8.Z.9.a  .4 Z.Z.8.6.Z.3  .a * = = = = = ",
"k.3.3 3 u { -.-.-.r.N N r.-.-. .6 * = = * < ^ &.i.T.G.F.w.9.q.q r p A.S.S.D.L ^  .S Z., 8.Z.9.a  .4 Z.0.F u Z.3 &. .2 = = , , , ",
"e.< = = = 2  .d.*./ v v _ d.-.! 2 5.< L 6.u 8 &.i.Y.P.R.P.G.F.( _ S A.S.S.D.L ^  .2 4 9.Z.Z.9.a  .4 Z.2 H w.Z.3  .-.E < = , = , ",
"8 H 7.7.7.i ^ O.6 < < < < ) -.! 2 0.5.q.Z.Z 8 &.x.T.D.!.W.~.G.) &.S S.D.D.D.L ^  .< < Z.Z.Z.9.a  .4 Z.9.0.9.< 2 &.*.8 , = = = , ",
"8 6.Z.Z.H 2 ^ } q.Z.Z.Z.q.y.-.! 2 0.H 0.Z.Z 8 &.x.W.W.W.P.u < ^ &.S S.D.D.D.L ^  .3 Z 5.9.0.8.a  .4 Z.Z.5.F 5.3  .-. .2 = 2 < , ",
"8 6.G 7.9.i ^ y.S.S.S.S.D.u.-.! 2 0.G L 0.Z a *.D 6.S.Y.P.9.5.^ &.S S.D.D.D.L ^  .S Z.2 6.0.9.a  .4 q.q.F 3 Z.3  .-.-.8 = 5.2 , ",
"8 6.9.9.w.Z ^ y.S.S.S.S.S.u.-.! 2 q.Z.G 9.Z a *.3 2 0.W.E.W.G.) &.S S.S.S.D.L ^  .S A.A.4 F 0.a  .4 Z.0.F i Z.3  .-.-.8 = G 2 , ",
"8 6.Z.F 7.Z ^ y.S.S.S.S.S.u.-.^ 2 0.Z.A.Z.p 8 &.x.~.~.~.U.F.P.) &.S A.S.S.S.L ^  .S A.A.0.L < a  .4 Z.2 H Z.Z.3  .-.-.6 = F 2 = ",
"8 6.Z.9.q.Z ^ y.S.S.S.S.S.u.*.! 2 0.q.Z.Z.p 8 &.i.P.D.R.Y.U.F.) &.S S.D.D.D.L ^  .Z q.Z 9.8.G a  .4 Z.9.9.q.Z.3  .-.*.5 = 5.2 = ",
"8 6.Z.q.Z.Z ^ y.S.S.S.S.S.u.*.! 2 0.Z.Z.Z.p 8 &.i.P.D.R.Y.I.F.) &.S S.F.D.F.5.^  .i 6.i 8.Z.9.a  .2 Z 9.c.Z.q.3  .-.*.2 = F 2 = ",
"8 6.Z.F 7.Z ^ y.S.S.S.S.S.u.*.! 2 0.0.Z.Z.Z 8 &.x.~.~.~.I.F.P.) &.S S.F.F.F.5.^  .< 2 Z.0.0.9.a  .2 i 9.8.7.Z.3  .-.&.2 = F 2 = ",
"8 6.F 5.q.Z ^ y.S.S.S.S.S.u.-.! 2 9.u 9.Z.p 8 &.x.R.F.W.W.W.G.) &.S S.D.D.D.L ^  .Z Z.A.u F 0.a  .4 A.Z.F 3 Z.3  .-. .2 , 5.2 = ",
"8 6.0.0.Z.Z ^ y.S.S.S.S.S.u.-.! 2 0.0.Z.Z.Z 8 &.J 5.H 7.7.F.D.) &.S A.S.S.S.L ^  .Z Z.3 5.9.9.a  .4 Z.Z.F 4 A.3  .-. .< = F 2 = ",
"8 6.Z.F 6.Z ^ y.S.S.S.S.S.u.-.! < 4 0.Z.Z.p a *.3 < < 2 2 A.G.) &.S A.S.S.D.L ^  .S Z.I 0.7.p a  .4 Z.Z.9.6.3 2  .-. .< , H 2 = ",
"8 6.Z.0.Z , ^ y.S.S.S.S.S.u.-.! 2 8.q.i 8.Z a &.c.R.F.~.~.~.G.) &.S S.F.D.F.I ^  .S Z.7.c.5.4 a  .4 Z.H 6.8.* 2  .-.) < , 5.2 = ",
"8 6.Z.q.{ (.@X%X>XqXqXqX>Xu.*.^ 2 q.Z.9.Z.Z 8 &.i Z i Z Z S.F.) &.S S.F.D.F.5.^  .S Z.< 8.Z.8.a  .4 Z.2 H 9.u 2  .-.^ , , F 2 = ",
"8 6.0.q.C.9X9X9X9X9X9X9X3Xo.*.! 2 0.Z.Z 8.Z 8 &.i p u Z Z S.F.) &.S S.D.D.D.I ^  .S A.Z.Z.L = a  .4 Z.4 L Z.Z.3  .-.^ , , L 2 = ",
"8 6.J n.-X;X*X*X*X*X*X*X;X X).! 2 0.Z.6.0.Z 8 &.c.R.F.~.~.~.P.) &.S S.D.D.D.L ^  .S A.A.Z.L * a  .4 Z.q.Z.Z.Z.3  .-.! , , L 2 = ",
"~ M.@X=X#X5X5X5X5X5X5X5X2X}.&X[.] v.K 0.w.p 8 &.i.W.R.W.P.i 2 ^ &.S A.S.S.D.L ^  .Z Z.G 9.8.F a  .2 4 9.Z.Z.Z.3  .-.! = = Z 8 T ",
"[.'.V.H.V.8X7X7X7X7X7X7X8Xa.1.).`.:X`.|.V.D E &.7.P.G.Y.P.8.L ^ &.S S.D.D.D.L ^  .Z q.u 5.9.9.a  .< = Z F F F 2  .-.^ U $.@X{./.",
"U =.v.] o.8X7X7X6X6X7X7X8Xo.1.=.E n.V.(. X{.{. X%X0XL.Q.Q.Q.G.) &.Z A.S.S.S.L ^  .p q.q.4 Z 8.a &.2 2 5 7 U R %. X&X{.'./.M.] 2 ",
"d +.U T U 6X7X,X+.$.4X7X1XU ] Q E o.i.Q ` U #.#.%./._.'.'.'.'.{.{.(.^.:.%.$.$.(.(.$.%.%.%.:.(.'.{.'.'.'.'._._.%.%.@.U U C D Q 2 ",
"7 +.d T U 6X7X:.* = {.7X1Xd U 7 C U 5 U C 5 U 7 7 U 5 U U U ' T +.$.#.:.%.%.^.%.:.^.%.:.%.+.%.' ~ ' U T U 5 U 5 7 U 5 U U 7 Y 5 ",
"7 #.` =.X.6X7X$.* = [.7X4XU Y C Q ] ! ] ` C Y C ` X.! X.X.X.] C U Q X.X.X.X.` 7 U Q ! ` ! W ` 7 U Q ! ] Q W ] U U Y 7 Y U ` Q 5 ",
"#.`.2.}.1.5X6X^.7 7 {.6X2X#.>.] @.<.,.<.,.] @.] <.<.,.m.b.b.<.] [ ,.b.m.b.b.<.] [ ,.,.<.,.>.<.] [ >.,.<.>.>.<.[ [ @.] @.[ ,.>.' ",
"@X%X=X%X{.<X<X*XXXXX<X<X*X`.J.N.B.K.|.J.J.N.C.N.J.$X|.$X#X+XK.N.N.J.|.$X#X+XK.N.N.J.|.J.J.B.K.N.B.J.|.K.J.B.K.N.B.C.N.C.B.B.J.2.",
"A | { y.@.^.:.%./.$._.+._.Q P S K y.{ y.| D K S } u.{ z.u.| y.S D } } z.u.| | S D } { y.| { | S D P { y.} { y.D D K S K K { P A ",
"A { ( { #.oXOXoXOXoX,XoXoXE K A D } ! { { A K A ( } ( | } { } S S { { | } { { A S ( ! { { ( { A D K ! } { ! { A D D A K D ( K i ",
"A ( W ( #.6X7X7X7X7X7X7X1XE D A D ( W ( ( A D A ! { W { { ( { A A ( ! { { ( ( A A ! W ( ( ! ( A A D W ( ! D ( A A D A D D ! ! 8 ",
"8 D A ! #.6X7X7X7X7X7X7X1XU D A A ! A ! W A D A W ( A ( ! W ! A A W W ( ! W ! A A W A ! W A ! A A D A ! W A ! A A A i D A A D 8 ",
"8 D A W 1.2X2X2X2X2X2X2X<X#.A C A W A W A 8 A 8 A W A W W A W 8 A A A W W E W 8 A A A W A A W 8 A A A W A A W 8 A A 8 A A A A 8 ",
"8 A 8 ! .X;X;X;X*X*X*X*X;X`.A 8 8 A 8 A A 8 A 8 A E 8 E A A A 8 8 A A E A A A 8 8 A 8 A A a A 8 8 A 8 A A 8 A 8 8 A 8 A 8 a A 8 ",
"8 A 8 E `.].].].].].].]..X;.A 8 8 A 8 A 8 8 8 8 8 A 8 A A 8 A 8 8 A 8 A A 8 A 8 8 A 8 A 8 8 A 8 8 8 8 A 8 8 A 8 8 8 8 8 8 8 A 8 ",
"8 8 8 8 U Y Y Y Q Q Q Q Q U 8 8 8 8 8 8 8 8 8 8 8 8 8 8 8 8 8 8 8 8 8 8 8 8 8 8 8 8 8 8 8 8 8 8 8 8 8 8 8 8 8 8 8 8 8 8 8 8 8 5 ",
"5 8 8 8 U U U U U U U U U C 8 8 8 8 8 8 8 8 8 8 8 8 8 8 8 8 8 8 8 8 8 8 8 8 8 8 8 8 8 8 8 8 8 8 8 8 8 8 8 8 8 8 8 8 5 8 8 8 8 5 "
};
