/* XPM */
static char *result[] = {
/* columns rows colors chars-per-pixel */
"64 64 255 2 ",
"   c #010103",
".  c #01030B",
"X  c #07080C",
"o  c #010513",
"O  c #020A15",
"+  c #01061C",
"@  c #19014F",
"#  c #1F0949",
"$  c #0C0C1B",
"%  c #09161F",
"&  c #140A56",
"*  c #1D0A5C",
"=  c #1B115B",
"-  c #25094E",
";  c #27084E",
":  c #3B164D",
">  c #240555",
",  c #2A0657",
"<  c #260B53",
"1  c #24065A",
"2  c #2C075A",
"3  c #240A5C",
"4  c #2B0A5C",
"5  c #310858",
"6  c #32085E",
"7  c #281657",
"8  c #25135C",
"9  c #2B125D",
"0  c #371557",
"q  c #2B245D",
"w  c #1E0E60",
"e  c #1B196B",
"r  c #141C75",
"t  c #181E76",
"y  c #280A67",
"u  c #330A64",
"i  c #370C69",
"p  c #2C1464",
"a  c #281868",
"s  c #371669",
"d  c #331A6A",
"f  c #2E0D72",
"g  c #291875",
"h  c #371A75",
"j  c #1B257A",
"k  c #1B257C",
"l  c #2A266B",
"z  c #2B236C",
"x  c #38226D",
"c  c #2C2373",
"v  c #272878",
"b  c #2C2B7A",
"n  c #362777",
"m  c #342C7B",
"M  c #2B3579",
"N  c #373579",
"B  c #471C57",
"V  c #412049",
"C  c #480F6D",
"Z  c #431469",
"A  c #4C146C",
"S  c #55166D",
"D  c #451877",
"F  c #591171",
"G  c #6B1B71",
"H  c #552868",
"J  c #482475",
"K  c #502872",
"L  c #453B7B",
"P  c #672879",
"I  c #712D71",
"U  c #2D4B6E",
"Y  c #314979",
"T  c #2E627B",
"R  c #54477C",
"E  c #725A79",
"W  c #8D2F75",
"Q  c #AE3876",
"!  c #8C4B75",
"~  c #B74C77",
"^  c #9C686B",
"/  c #C55371",
"(  c #CD7168",
")  c #B89270",
"_  c #C69F6C",
"`  c #291D87",
"'  c #321B8B",
"]  c #341692",
"[  c #192682",
"{  c #1D2A85",
"}  c #1E2D8A",
"|  c #1E318C",
" . c #1D3392",
".. c #2A2582",
"X. c #292787",
"o. c #362986",
"O. c #2B3786",
"+. c #21328E",
"@. c #2E3C89",
"#. c #363886",
"$. c #323D8B",
"%. c #262692",
"&. c #3B2997",
"*. c #223593",
"=. c #243A95",
"-. c #2A3897",
";. c #253D9A",
":. c #373A96",
">. c #3533A6",
",. c #4A1788",
"<. c #551989",
"1. c #441A97",
"2. c #621C96",
"3. c #432A88",
"4. c #483889",
"5. c #543B8A",
"6. c #482896",
"7. c #552893",
"8. c #463794",
"9. c #573995",
"0. c #6A3490",
"q. c #5C1CB0",
"w. c #621AB0",
"e. c #4D2EAC",
"r. c #512AA5",
"t. c #6A30A8",
"y. c #384886",
"u. c #34428A",
"i. c #37578C",
"p. c #2E4793",
"a. c #2B4699",
"s. c #364996",
"d. c #3A5896",
"f. c #35539D",
"g. c #3C5C9E",
"h. c #396292",
"j. c #3C6A94",
"k. c #3E6D94",
"l. c #3B699B",
"z. c #2C4BA4",
"x. c #3748A4",
"c. c #2D53A6",
"v. c #375AA5",
"b. c #304CB2",
"n. c #3558B3",
"m. c #3C66A6",
"M. c #3462AE",
"N. c #3769B7",
"B. c #3C74B0",
"V. c #494988",
"C. c #5A4586",
"Z. c #4B548D",
"A. c #464992",
"S. c #56469A",
"D. c #4A5895",
"F. c #545A97",
"G. c #6A4A88",
"H. c #775288",
"J. c #64489A",
"K. c #6B5898",
"L. c #426486",
"P. c #486898",
"I. c #546898",
"U. c #5A759D",
"Y. c #69669A",
"T. c #6B7099",
"R. c #464BA7",
"E. c #4854A8",
"W. c #5757AA",
"Q. c #4B4FB1",
"!. c #5355BC",
"~. c #6959AE",
"^. c #7251AD",
"/. c #6B55B2",
"(. c #486AA8",
"). c #5664AE",
"_. c #4578A6",
"`. c #5677AB",
"'. c #4767B6",
"]. c #5267B4",
"[. c #4777B7",
"{. c #696DA9",
"}. c #6579B4",
"|. c #5822D4",
" X c #6329DA",
".X c #3769C4",
"XX c #3D7ACA",
"oX c #5351C9",
"OX c #6A41D7",
"+X c #496BC9",
"@X c #5567C9",
"#X c #477CC6",
"$X c #5474C9",
"%X c #586BD7",
"&X c #5973DA",
"*X c #5878D8",
"=X c #6F75C8",
"-X c #587EE0",
";X c #8D3388",
":X c #A93C8C",
">X c #885685",
",X c #A94B8B",
"<X c #926D90",
"1X c #9253AE",
"2X c #AE58B7",
"3X c #9364AC",
"4X c #CA5FAC",
"5X c #A054CD",
"6X c #9065C8",
"7X c #C149C1",
"8X c #4583AB",
"9X c #4487A9",
"0X c #4585B5",
"qX c #4984B5",
"wX c #458AB5",
"eX c #498CB4",
"rX c #478CB9",
"tX c #498EBA",
"yX c #5589B6",
"uX c #4A92B5",
"iX c #4A94BC",
"pX c #4C9BBD",
"aX c #5F97B2",
"sX c #5994BC",
"dX c #6A85A6",
"fX c #6585BA",
"gX c #7190B2",
"hX c #50A1BE",
"jX c #4A86CA",
"kX c #538BCE",
"lX c #4E9EC2",
"zX c #4C94C8",
"xX c #5886D9",
"cX c #4C93D4",
"vX c #5796D9",
"bX c #6990CD",
"nX c #4EA2C1",
"mX c #51A4C2",
"MX c #53A8C4",
"NX c #57A2DB",
"BX c #6AB1D0",
"VX c #5A89E2",
"CX c #4C9EE0",
"ZX c #5C97E6",
"AX c #6F8EE3",
"SX c #6599E6",
"DX c #5DA7E8",
"FX c #55B1E7",
"GX c #62A9EA",
"HX c #6CB9E8",
"JX c #65B7F2",
"KX c #6BC2F2",
"LX c #A18B87",
"PX c #839AB2",
"IX c #D7A9B6",
/* pixels */
"                                                                                                  o         o   o o             ",
"                                                                                            .             .     o o   o o     & ",
"                                                              .                             . .   .       o X   o .           o ",
"          .   .                   . . .     .   .       . . o o                 .     X     o o   . o o   . X . o o .     o o   ",
". . . . . . . . . . . .   . . . . . . . X   . . . . . . . . X X . . . . . . . . . . . X X . X X   . X o . X X .   X X . o + o X ",
". . . . X X X X X . X . . . . . . X . X . . X X . . X X X X   X . . X X . X X . X X X . X . . . X X X X . . . X X X . X . X o & ",
"X X X X X X X X X X . X X X X X X X X X X X X X X X X X X X X X X X X X X X X X X X X X X X . X X . X X X X X X X X X X X X X X ",
"X X X X X X X X X X + X X X X X X X X X X X X X X X X X X X X X X X X X X X X X X X X X X X + X X & X X X X X X X X X & X X + X ",
"X + + X + X X + X $ X X $ X X + + X + + X + X + X X + X + X X X $ X X $ X + X X + + X + + X + X + + + X + X X + X + X + + X + X ",
"$ X + X + X $ X $ X X $ X $ X + X + + X + + + $ # + + X + + + + X + $ X + X + + + X X + + + + X X X + X X + + X + X + X X + + + ",
"$ X + + $ + + + X $ X X $ X $ $ + + + X + & & & & & & + + + + + $ X + + + + + + @ X & & & & $ & + + + + + + X $ + + + + + + + + ",
"$ $ + $ + $ + @ $ $ $ $ $ $ + $ + + * e e e t v k { j j e & + + $ + $ $ @ + + @ $ & Y R.E.R.s.:.$.M M M e $ @ + $ $ + $ $ + $ & ",
"$ $ % $ @ $ @ $ $ $ @ @ $ $ $ @ $ y g a j k { =.=.*.=.f.c.| & @ $ $ $ $ $ $ $ & l B.[./.6X6X5X XOXOXOXoX:.* @ $ $ $ $ $ $ $ $ $ ",
"$ $ % $ $ @ $ $ $ $ $ @ $ $ $ $ * g c j +.{ +. .=.=.;.c.N.n.j + $ $ % % % $ + l pXFX[.3XIXIX4X7X7X7X7X1Xo.= @ $ % $ % $ $ $ % $ ",
"% % % $ % % % % % % % % % % % % * ' k k M { =.=. .;.;.z.M.M.v % % % % % % % @ y.CXFXB.J.3X3X1X1X1X7X7X1X8.w % % % $ % % % % % % ",
"% % % % % % % % % % % % % % % % * ....j k {  . .;.;.;.z.n.n.v % % % % % % % % u.cXCXN.#.0.J.J.J.0.J.^.t.o.y % 1 % % % % % % % % ",
"% > % % 1 % % 1 % % 1 % % 1 % > * o.v t [ [ } *.;.;.;.z.n.n.v % 1 % 1 % % > % u.cXcXm.m x S.(.E.4.W.9.7.&.p 1 1 1 > % % 1 % % 1 ",
"% > 1 1 1 > % 1 1 % 3 3 3 1 3 % y o...k [ X.} } =.;.;.z.n.N...1 1 1 > > 1 > > u.XXcXv.e 3 y y a p g &.s.o.f y 4 3 1 1 1 1 1 % 3 ",
"1 1 1 1 1 1 1 1 1 g d.`.P.P.N 3 y o.` t k { } +.;.;.;.c.N.n.u.d y 3 4 > 1 3 4 $.XXXXc.e 3 * * * * * v :.&.h u y y y 3 4 1 3 3 1 ",
"1 1 2 1 1 2 1 1 g z.kXHXHXKXbXN y o...j [ =.+.} *.;.;.z.z.-._.lXyX(.d.y.c p 6 u.XXXXc.z * y * y y * y g &.,.i i i u f h n z p y ",
"2 1 4 4 y 1 2 1 a m R.%X&X&X&X8.y 3.v j k { +.+. .*.;.+.g h qXBXBXBXBXBXsXI.d u..X.Xc.M Z.V.m * * * * g 6.,.C ,.,.<.,.6.$XfX`.D.",
"y 2 y 4 2 u 2 u 2 5 8.@X%X%X@Xo.u 6...j k { } } *.=.*.f y n qXgXgXPXgXBXBXBX#.$..X.Xc.u.F.W.4.g y y y g 6.7.<.D i i u o.oX%X%X@X",
"n ....m m n o.o.s 5 8.&X&X&X&X:.f 6.o.j k { +.+.| *.` y y d [.fXT.gXU.U.dXaX4.4.n..Xc.v y f g '.a.f X.e.r.7.<.,.f f u h @X&X&X+X",
"-.*.;.=.c 7 #.!.n 5 A.*XVX*X*X8.s 7...j [ { { +.*.*.` y u g `.fXT.U.L.dXdXmXV.V.'..Xc.v y y g ..g f g :.r.t.2.<.h i 6 ' @X-X&X@X",
"{ { } } = = #.!.n 5 A.*XxXVX*X8.s 7.o.k k { | *.*.*...y y h `.}.T.U.I.I.U.sXR C.'.n.-.a d d a m z 3 3 g r.t.w.<.i i u n %XxX-X$X",
" . . .} l e #.!.3.x ].ZXSXZXZXR.h 7...j k X.{ |  .=.X.u u h (.}.T.PXU.I.U.sXC.C.Q.b.-.3.R R N D.u.y g o.r.t.t.7.i i i n $XVXVX*X",
" . .[ } v 7 N oXx.x.xXSXSXSXSXVX].J...j k [ } |  .*...u u D (.}.T.dXT.U.I.zXG.G.R.>.-.L ! E J f ,.w.q.6.r.t.t.6.h u u o.*XVXVX*X",
" . .} [ j 8 b Q.o.6.@X%X%X%X%X%XoX9.o.j k [ +.+.*.-...i u J ].}.T.U.I.I.U.yXG.E S.>.X.m R L d p n n o.3.S.OXt.6.D i f &.kXZXZXxX",
"[ [ [ [ r w m 8.C 7.oX&X%X%X%X%X!.t...k [ =.+.+.*.*...i C J ].}.Y.I.dXdXdXsXH.H.9.>.&.g s h f #.tXsXzXsXbXeXl.i.s i u L xXZXZXxX",
"[ r [ [ * % m 8.F 7.@X&X%X&X%X&XoXJ.o.v k +.| +.*.;.o.C C J !.}.Y.I.dXPXPXfXT.! 9.>.' c h h h s.iXlXlXpXhX9XT U d i i 3.xXDXvX#X",
"r r r r e 7 l 8.C 7.%X&X&X&X&X&XQ.Q.$XN.@.{ { +.*.-.o.C A K W.{.Y.I.I.dXgXbX>X^ 9.&.` &.6.q.r.Q.zXlXlXlXlX8XT U x s s 3.vXGXxX#X",
"r r r r e a N 9.F 9.%X&X&X*X-X+X-.n.xXvXc.X.*.| *.*.o.C F P ).{.Y.I.T.U.U.kX<X^ G.&.' |.|.|.|.OXzXmXpXlXmX9XT U x s i o.ZXDXxX#X",
"r j j t e 7 N 8.F 7.%XVX-X&XQ.'.kXGXGXGX[.+.=.+.*.=.3.S G P !.{.K.U.T.T.I.fX<X) 0.1.' e.|.|.|.oXzXpXpXiXlXB.T U q i i 4.vXJXcX#X",
"r r r r 8 ; m 9.F 9.*XVXVX+X%.n.HXKXKXJXkX+.+.+.=.=.3.G G P ~.{.Y.T.T.dXPXfXLX^ H.1.' e.|.|.|.|.0XwX0X0XrXk.T U d Z s 4.SXDXvX#X",
"r e r r 8 < N S.F 9.&XVXVX.X%.b.JXJXJXJXkX=.+.-.=.z.4.G I I ~.).T.PXPXgXdXfXLX) H.1.] r.q.q.|.e.B.B.B.B._.f.Y Y Z Z Z 4.DXDXcXjX",
"r e e e 7 7 N S.F 9.-XZXVX+X%.n.DXJXHXGXkX=.*.-.;.a.7.G W ;X~.{.Y.T.F.I.I.fXLX) H.1.' r.w.w.w.r.v.l.l.f.+.g v g s Z Z 4.vXJXcX$X",
"e e e e 7 0 L S.F 9.xXSXDX*X%.n.DXDXGXGX=X-.=.a.;.;.5.W W W ~.~.K.F.I.I.F.bXLX_ H.6.' 6.q.q.q.e.f.l.l.c.t y y s Z C Z 4.GXGXcXjX",
"w e a a p 0 4.S.F 5.xXSXDXjX .b.ZXDXSXGX=X-.-.a.x.x.0.W Q ;X/.~.K.I.Z.D.I.].V.R o.X.` %.' o.' X.+.=.c.z.` y y h Z Z A 4.NXDXcXkX",
"p d a d Z B C.S.F 9.xXGXDX*X>.Q.ZXZXZXSX=X:.s.x.x.s.0.Q Q :X~.~.K.I.Z.F.I.].%.X.X.O.X.X.X.X.X.b g %.n.b.%.y g n J Z A 4.GXNXzXkX",
"x x d x B B R S.G J.VXGXDX*X;.b.VXZXSXAX6X:.R.x.R.R.5.~ Q ,X^.~.K.I.Z.D.I.].o.O.o.O.#.o.O.O.X.O.t ;..X.XX.g g u.K A A V.DXNXcXjX",
"H J x H H H R K.G 0.AXGXGXxX;.n.VXVXVXAX6Xe.E.E.Q.Q.H./ ~ :X1X~.K.U.Z.F.F.].o.n n m m #.m n l n b a.XXXX@.b O.L.L A A 4.DXNXzXkX",
"H H H K H I G.K.G ;X:X6XvX#X>.Q.*XVXVX=X3XS.W.W.W.!.H./ / :X^.~.K.T.F.F.F.].4.c j j v aXV.R y.y.d.v.v.c.i.L.L.L.K A D 5.NXNXzX#X",
"K P P I ! ^ <XJ.S Z J J o.m 0./.&X-X*XbX<XJ.^./.~.~.! ( / ~ 1X~.K.I.Z.Z.F.].V.n j g v aXD.y.O.=.a.n.[.&.` #.u.#.J S A C.NXvXkX$X",
"0.P ;X,X4X4X2X^.S A J D J K G 7.x.Q.Q.E.G.9.t.1X^.~.>X( ( / ~.~.K.F.V.F.F.].D.L d h y.hXd.v X.l j (.bX:.` ' ` ` Z S A V.vXzXjX].",
"K S P I ! ,X1XL Z 9 p p 9 p p p p a p a a p G ;XJ.0.E ^ ^ ! C.C.K R N N R y.V.N d d N U.Y s d p p R 9Xm y g g u 6 Z Z L P.l.m.:.",
"< < 0 0 B B 0 : ; - ; ; ; - - - - - - - < ; 5 0 0 : ; V V : 9 7 7 < 7 - 7 7 7 7 - ; - q 7 ; - - ; 7 q < % # > @ ; ; ; < q l 7 7 ",
"; O O O O O O O O O O O O O O O - O O O O O O O O O O O O O O O O O O O O O O O O O O O O O O O O O O O O O O O O O O O O O O O ",
"O - # # # # # # # # # # # # # # # O # # # # # # # - O ; O O # + - O # # # # # # - # # # - O O # # # # # # # O - O - # # # # # # ",
"j.j.j.j.k.k.k.k.j.j.j.j.j.j.j.j.j.j.j.j.j.j.j.h.j.j.h.h.j.j.h.j.h.j.h.j.h.h.h.h.h.h.h.h.h.h.h.d.h.d.h.h.h.d.h.h.h.i.h.f.i.i.i.i.",
"h.j.k.P.P.9X9X_.9X9X9X9XeXeXuXuXuXpXuXpXuXuXpXpXpXpXpXpXpXpXpXpXpXpXpXpXpXpXpXpXpXiXiXiXiXiXpXpXiXlXiXiXiXzXiXiXiXiXrXzXrXrXwXwX",
"8 a a l l l M M N Y y.i.i.d.h.k.l._._._.9X9XwXeXuXuXuXuXiXiXpXpXpXpXpXnXpXpXpXpXpXiXpXiXiXpXiXiXiXiXzXiXzXiXiXiXiXrXrXrXrXrXwXwX",
"k.l.9X9XuXuXuXpXpXhXhXhXhXmXmXnXmXmXhXMXhXmXhXnXhXhXhXhXnXnXnXpXnXpXpXpXlXpXpXpXpXpXpXpXiXiXpXiXiXiXiXiXiXiXiXiXrXiXrXrX0X0XwX0X",
"mXmXMXMXMXMXmXmXMXMXMXMXMXmXmXmXMXMXMXhXhXhXmXhXnXnXmXlXnXlXpXhXpXnXpXnXpXpXpXlXpXpXiXpXpXiXiXiXiXiXiXiXrXiXrXiXrXrXrXrX0X0X0X0X",
"Y y.i.i.j.P._._.9X9X9X9XuXuXuXpXuXpXuXpXpXpXpXpXpXpXpXpXpXpXpXiXpXpXpXpXpXpXpXpXpXpXpXiXiXiXiXiXiXiXiXiXiXrXrXrXrXrXwXwXrX0X0X0X",
"> > > > < 3 8 8 9 8 p a a d l l l l N l M N M N M Y y.i.l.l._.8XwXwXwXiXiXpXpXpXpXiXpXiXiXiXiXiXiXiXiXrXrXiXrXrXrXwXwXrXwXrX0X0X",
"9 9 8 9 9 9 9 8 4 8 8 9 7 8 < 9 9 9 7 9 9 7 9 9 7 a N i.h.(._.8X9X9XwXuXiXuXuXpXiXiXiXiXtXtXtXtXwXrXiXrXrXrXrXrXrX0X0X0X0XB.0X0X",
"u.u.y.$.y.u.@.u.#.u.u.$.u.M p.(.s.y.#.u.#.u.u.@.#.$.$.y.s.y.s.f.s.d.d.g.g.g.g.g.g.E.l.g.(.d.g.g.f.B.[.(.g.v.(.v.v.m.g.v.D.g.l.g.",
"M.M.v.c.c.s.u.@.O.O.@.O.O.M a.#Xd.@.O.@.@.M u.u.p.f.f.c.v.M.M.M.M.M.M.M.n.v.v.f.p.u.@.O.$.O.$.$.O.N.[.A.$.#.@.#.$.@.$.s.c.c.n.v.",
"a l v O.u.p.f.f.y.b M z l e a.XXR v z c b v p.p.f.p.$.O.b c d a a a a z c b @.p.f.f.s.#.#.c n n v N.(.n c c n b @.s.c.f.p.#.m n ",
"> > > > < = a c p.f.d.#.c a a.rX#.b z O.s.f.u.m p 4 , 4 , , , , , , 4 4 4 2 4 4 p c O.f.v.y.n c v N.].n c m p.f.s.#.h s 6 6 u 4 ",
"> > > > ; > > , < a @.f.d.z a.jX4.M p.g.N p , , , , , , , , , , , 5 , 2 2 2 < 5 2 2 6 4 b f.P.#.v N.(.m $.v.A.n 6 6 6 6 6 6 6 6 ",
"> > < > > > > > 1 > 1 z f.y.c.[.s.d.y.d , 3 , , , , , , , , , 5 , , 2 5 2 2 2 , 2 , 2 6 2 p O.v.y.N.(.s.g.n 6 2 6 6 6 6 6 6 6 6 ",
"> , > > > , > > > > > > e f.[.N.B.s.9 , 3 , , , < , , , , , 4 , , , , , , 2 4 5 2 6 6 2 6 2 p #.[.B.B.E.L 6 6 5 6 6 6 6 6 6 6 6 ",
"> < > > > < > , < > < > > u.jXN.(.n , , , , , , 4 , , , , 5 , 2 , 5 , 2 2 2 2 5 2 6 2 6 2 6 4 a N.XXM.D.6 6 6 6 6 6 6 6 6 6 6 u "
};
