/* XPM */
static char *abe7e3167bc54623a98d2c599e1901c85D71GLn1pSnTo730[] = {
/* columns rows colors chars-per-pixel */
"64 64 248 2 ",
"   c #717457",
".  c #797B66",
"X  c #B8762C",
"o  c #B55C7E",
"O  c #A65462",
"+  c #B9617F",
"@  c #B17172",
"#  c #93606C",
"$  c #C2627F",
"%  c #D8667B",
"&  c #C25F7E",
"*  c #38907E",
"=  c #34837C",
"-  c #798255",
";  c #788B6C",
":  c #7C9C71",
">  c #749067",
",  c #7FA772",
"<  c #AC8F3F",
"1  c #819475",
"2  c #9AB667",
"3  c #8BA57C",
"4  c #90A97F",
"5  c #99B779",
"6  c #AFB376",
"7  c #CB985A",
"8  c #D19A5E",
"9  c #CC9D64",
"0  c #D29E66",
"q  c #CFA56C",
"w  c #D1A46B",
"e  c #D6AB77",
"r  c #D6B17D",
"t  c #A3CB7D",
"y  c #A6C77A",
"u  c #B1D27B",
"i  c #B35E81",
"p  c #BC6481",
"a  c #B76683",
"s  c #B87685",
"d  c #907AB0",
"f  c #C66882",
"g  c #D56C83",
"h  c #C9778C",
"j  c #D77989",
"k  c #D47F96",
"l  c #3E8F83",
"z  c #3DA38E",
"x  c #459485",
"c  c #759190",
"v  c #4BA78B",
"b  c #51A78C",
"n  c #5ABA95",
"m  c #52B190",
"M  c #63BE97",
"N  c #69AE84",
"B  c #7EA5A8",
"V  c #5FC393",
"C  c #65C598",
"Z  c #74D1A6",
"A  c #939887",
"S  c #BA9489",
"D  c #B79186",
"F  c #B08492",
"G  c #8CA886",
"H  c #93AC85",
"J  c #8CBA87",
"K  c #96B181",
"L  c #9BB889",
"P  c #9BBD9B",
"I  c #95BB94",
"U  c #92AA97",
"Y  c #A2BE8D",
"T  c #AAB68C",
"R  c #B9BC85",
"E  c #A6BA97",
"W  c #B2AC93",
"Q  c #9599B2",
"!  c #A489B3",
"~  c #83ABAC",
"^  c #8AB2B3",
"/  c #8CB7BE",
"(  c #94BDBC",
")  c #8CAFAD",
"_  c #ACBAAC",
"`  c #A9B7A9",
"'  c #B1B4AB",
"]  c #AFB3B2",
"[  c #A5BEBC",
"{  c #B4B4B4",
"}  c #B8B3B7",
"|  c #B2BBB3",
" . c #B6B5B9",
".. c #B8B5B9",
"X. c #BBBABA",
"o. c #B9B9B6",
"O. c #ABAAA2",
"+. c #C49A8D",
"@. c #D8958E",
"#. c #D88698",
"$. c #C89E91",
"%. c #DB9695",
"&. c #D3878B",
"*. c #E78E9D",
"=. c #DAB583",
"-. c #DCBA8C",
";. c #D8B484",
":. c #CCA493",
">. c #D3A495",
",. c #DCAB9B",
"<. c #D7A798",
"1. c #DEBE91",
"2. c #DAB998",
"3. c #CAB792",
"4. c #E4BD92",
"5. c #E4B596",
"6. c #DC98AA",
"7. c #E58EA2",
"8. c #E593A6",
"9. c #D6B1A9",
"0. c #E7A7B7",
"q. c #E0AFA0",
"w. c #8DC28C",
"e. c #87CB8B",
"r. c #97C48A",
"t. c #95C295",
"y. c #A3C28D",
"u. c #A7CA86",
"i. c #B4CA87",
"p. c #ABD384",
"a. c #A4C291",
"s. c #ABC594",
"d. c #AACA95",
"f. c #ADCC9A",
"g. c #BAC99A",
"h. c #ABD195",
"j. c #B5D497",
"k. c #B3D682",
"l. c #8BD7B8",
"z. c #92DABD",
"x. c #85CCB5",
"c. c #AECDA6",
"v. c #ADCAA8",
"b. c #B3CFA6",
"n. c #B2CEA9",
"m. c #BFCCA1",
"M. c #B5D2A4",
"N. c #B5D1AB",
"B. c #B8D5A6",
"V. c #BDC8B6",
"C. c #BDDAB6",
"Z. c #D4C594",
"A. c #E3C69A",
"S. c #C2CEA2",
"D. c #C5CDBD",
"F. c #C9C7BD",
"G. c #C2DCBB",
"H. c #D1D2AC",
"J. c #E7CCA7",
"K. c #E2CAB7",
"L. c #C7E0B9",
"P. c #9593C4",
"I. c #9D9ECB",
"U. c #9A97C5",
"Y. c #938FC1",
"T. c #BC97D2",
"R. c #B79ACC",
"E. c #99B1C5",
"W. c #A6A6CC",
"Q. c #A2A5D2",
"!. c #A8ACD5",
"~. c #ADB4DB",
"^. c #ABB3D6",
"/. c #B2B7DB",
"(. c #BBAED0",
"). c #AEBAE0",
"_. c #C6B4CC",
"`. c #E8B9C7",
"'. c #C9A8DF",
"]. c #9BC3C3",
"[. c #9CC8C9",
"{. c #A2CBCD",
"}. c #ABC6C5",
"|. c #B2CDCC",
" X c #A7D4D5",
".X c #B9D7D8",
"XX c #A6D0CE",
"oX c #B6E7DB",
"OX c #BDD3E1",
"+X c #BDE8E3",
"@X c #9FE0CA",
"#X c #C6C2C4",
"$X c #C9C2C4",
"%X c #CCCBCC",
"&X c #CACDC1",
"*X c #D1CDC4",
"=X c #CCD2C5",
"-X c #DBD4C8",
";X c #D2D5D5",
":X c #E6DBD7",
">X c #E6CDCE",
",X c #CBE4CC",
"<X c #D2E6D3",
"1X c #EBE4D7",
"2X c #ECE4DA",
"3X c #E5E3D7",
"4X c #F2E5DD",
"5X c #F2E8DF",
"6X c #DAC8E7",
"7X c #CDD4EA",
"8X c #E8DAED",
"9X c #C6E7E7",
"0X c #DBE8E9",
"qX c #CDEAF7",
"wX c #CAE7F9",
"eX c #CCE9FA",
"rX c #D2EBF7",
"tX c #D3EDFA",
"yX c #DAEEFC",
"uX c #DBECF4",
"iX c #DEF1FC",
"pX c #DDF1FB",
"aX c #D9F0F9",
"sX c #E6EBEA",
"dX c #F3E6E3",
"fX c #EBEDF2",
"gX c #E5E9F5",
"hX c #E2F3FB",
"jX c #E2F3FA",
"kX c #E1F2FA",
"lX c #E1F2FC",
"zX c #E0F2FC",
"xX c #E2F2FD",
"cX c #E5F3FC",
"vX c #E3F4FC",
"bX c #E6F5FD",
"nX c #E4F4FC",
"mX c #E9F6FD",
"MX c #EAF6FD",
"NX c #EDF9FD",
"BX c #E7F8FF",
"VX c #F1F6FD",
"CX c #F1F9FB",
"ZX c #F1FAFD",
"AX c #F4FBFE",
"SX c #FBFDFE",
"DX c #F8F5FC",
"FX c #F2EFF2",
/* pixels */
"wXwXwXwXwXwXwXwXwXwXwXwXwXwXwXwXwXwXwXwXwXwXwXwXeXwXeXwXeXeXeXeXeXeXeXeXeXeXeXeXwXeXeXeXeXwXwXwXwXwXwXwXwXwXwXwXwXwXwXwXwXwXwXwX",
"wXwXwXwXwXwXwXwXwXwXwXwXwXwXwXwXwXwXeXwXwXeXeXqXeXeXeXeXeXeXwXeXeXeXqXqXqXeXqXeXwXeXeXeXeXeXeXeXwXeXwXwXwXwXwXwXwXwXwXwXwXwXwXwX",
"wXwXwXwXwXwXwXwXwXwXwXwXwXwXwXwXwXeXeXeXeXeXwXeXqXwXeXqXqXqXqXeXeXeXqXeXeXeXeXeXeXeXeXeXwXwXeXeXeXeXeXwXwXwXwXwXwXwXwXwXwXwXwXwX",
"wXwXwXwXwXwXwXwXwXwXwXwXwXwXeXeXeXeXeXeXqXwXtXtXtXeXeXtXeXtXeXeXtXeXeXeXeXtXeXeXeXeXeXeXeXeXqXqXeXqXeXeXeXeXwXwXwXwXwXwXwXwXwXwX",
"wXwXwXwXwXwXwXwXwXwXwXwXwXeXeXeXeXqXwXwXtXmXVXZXCXlXeXeXeXtXqXtXtXeXtXeXtXtXtXeXeXeXtXeXeXeXeXeXtXeXeXeXeXeXeXeXwXwXwXwXwXwXwXwX",
"wXwXwXwXwXwXwXwXwXwXwXeXeXeXeXqXeXtXiXjXZXZXZXZXZXAXjXtXtXtXtXtXtXtXtXtXtXtXtXtXtXtXtXtXtXeXeXtXtXeXeXeXeXeXeXeXeXeXwXwXwXwXwXwX",
"wXwXwXwXwXwXwXwXwXwXeXeXqXqXeXeXtXNXAXZXZXVXZXZXZXCXZXCXNXtXtXtXtXtXtXtXtXtXtXtXtXtXtXtXtXtXtXtXrXtXeXeXeXeXqXqXeXeXeXeXeXwXwXwX",
"wXwXwXwXwXwXwXwXeXeXeXeXeXeXeXtXtXbXZXZXCXZXZXCXZXCXZXCXAXiXeXtXtXtXtXtXtXtXtXtXtXtXtXtXtXtXtXtXtXtXtXeXtXeXeXeXeXeXeXeXeXwXwXwX",
"wXwXwXwXwXeXeXeXeXqXeXeXeXeXeXeXeXtXyXbXAXCXCXZXZXZXCXZXcXtXtXtXtXtXyXyXtXyXtXtXtXtXtXtXtXtXtXtXtXtXtXtXtXeXeXeXeXwXeXeXeXeXeXwX",
"wXwXwXwXeXeXeXeXqXeXeXeXtXtXqXeXtXtXtXrXpXxXaXyXjXpXtXtXtXtXtXtXaXyXtXtXtXyXmXNXbXtXtXtXtXtXtXtXtXtXtXtXtXtXtXtXeXeXeXeXqXwXwXeX",
"wXwXwXwXeXeXeXeXeXeXeXeXtXtXtXtXtXtXtXtXrXtXtXyXtXtXtXyXtXtXtXtXyXtXtXjXZXZXZXAXAXNXlXtXtXtXyXtXtXtXtXtXtXtXtXtXeXeXeXeXeXqXeXeX",
"wXwXwXwXeXeXqXeXtXeXtXtXtXtXtXtXtXtXtXtXtXtXtXtXtXtXtXyXyXtXyXyXyXyXyXjXCXAXZXZXZXSXAXaXtXtXtXtXtXtXtXtXtXtXtXtXrXtXeXeXeXeXeXwX",
"wXeXeXeXeXeXeXeXtXtXtXtXtXtXtXtXtXtXtXtXtXyXtXyXaXyXyXtXyXyXyXyXaXyXyXtXpXbXbXhXMXlXyXtXyXyXtXyXtXtXtXtXtXtXtXtXtXtXtXtXrXtXeXeX",
"wXeXeXeXeXeXeXeXtXtXtXtXtXtXtXtXtXtXtXyXtXtXyXtXyXaXyXaXpXyXyXyXaXyXyXiXyXyXyXtXyXyXyXyXyXaXtXyXyXyXtXtXtXtXtXtXrXtXtXtXtXtXeXeX",
"wXeXeXeXeXeXtXtXtXtXtXtXtXtXtXtXtXyXtXyXyXyXyXyXpXyXyXyXyXyXyXyXiXyXpXpXiXyXyXiXiXyXyXyXpXyXaXtXyXyXaXtXtXtXyXjXbXcXaXtXtXtXeXeX",
"eXeXeXeXtXtXtXtXtXtXtXtXtXtXtXtXyXyXtXyXpXyXyXyXpXyXpXyXiXyXyXpXpXpXpXiXiXyXpXaXpXaXyXyXaXyXyXyXaXyXyXyXyXaXmXCXAXAXZXjXtXtXeXeX",
"eXeXeXeXtXtXeXqXqXtXtXyXtXtXtXtXyXyXaXyXiXyXyXpXiXiXpXpXpXpXpXpXpXpXpXpXpXiXpXpXiXpXyXpXpXpXyXpXyXaXyXyXZXZXZXAXZXZXZXZXNXMXtXtX",
"eXeXeXqXeXyXpXjXpXtXtXtXyXtXyXyXyXyXyXyXyXiXpXpXpXpXpXpXpXpXpXpXjXpXpXjXpXlXjXpXpXpXpXpXpXpXpXiXiXyXtXjXSXAXZXZXZXZXZXZXCXAXyXtX",
"eXtXeXiXMXVXZXZXCXNXZXbXyXyXyXyXyXiXpXpXyXpXpXpXpXjXpXpXjXpXpXjXjXpXpXjXlXpXlXlXpXpXpXpXpXiXpXpXpXyXyXyXlXmXAXAXNXZXCXNXbXpXtXtX",
"tXeXtXAXCXZXZXZXAXAXZXZXiXyXyXyXyXyXpXpXpXpXpXpXpXlXlXpXlXlXlXlXjXlXlXjXlXlXlXlXlXpXlXpXpXpXpXpXiXaXiXaXyXyXpXjXiXyXaXtXyXtXtXtX",
"rXtXaXCXZXZXAXZXAXAXZXZXpXyXiXpXaXyXpXiXpXpXjXpXpXjXlXlXlXlXlXlXcXlXlXxXjXlXjXlXlXlXlXlXpXlXpXpXpXpXpXpXpXyXyXyXtXyXtXtXtXtXtXtX",
"tXtXtXjXNXcXMXAXNXcXmXjXyXyXyXpXiXpXpXlXpXjXlXlXlXlXjXhXjXcXjXcXhXlXjXxXhXhXxXhXjXjXlXjXlXlXlXpXiXpXpXpXaXpXyXyXyXyXyXyXtXtXtXtX",
"tXtXtXtXtXtXtXiXyXtXyXyXyXpXaXpXpXpXpXhXlXjXlXjXjXjXxXjXcXcXjXcXbXcXcXbXjXcXcXjXcXxXjXjXjXlXlXlXjXlXpXpXiXiXpXyXyXyXyXyXaXtXtXtX",
"tXtXtXtXtXtXyXtXtXyXyXpXpXaXiXpXjXpXpXlXjXlXjXxXxXjXcXxXcXbXcXcXmXcXbXbXbXbXbXcXcXcXjXjXhXjXjXlXjXpXpXpXiXpXpXpXpXyXaXyXyXyXtXtX",
"tXtXtXtXtXtXtXyXyXyXyXaXpXpXiXiXpXhXlXlXjXjXlXjXbXxXbXmXxXbXbXbXmXbXbXbXbXmXbXcXbXcXxXbXcXjXjXbXlXlXlXjXjXjXiXpXiXiXyXyXyXyXyXtX",
"tXtXtXtXtXtXyXyXyXyXiXpXpXjXjXpXlXlXxXhXcXcXcXcXbXbXmXbXbXMXmXbXmXbXmXmXbXmXbXmXbXbXbXbXcXcXbXjXjXjXlXlXlXpXpXpXyXaXaXyXyXyXyXyX",
"tXtXyXtXyXyXyXyXaXiXyXiXiXiXjXlXjXlXxXjXjXbXmXbXbXbXmXmXbXmXbXmXmXmXmXmXmXmXmXmXbXmXMXbXbXbXbXcXjXbXcXlXlXlXlXpXiXpXyXpXyXaXyXaX",
"rXyXtXyXyXyXyXaX0X3XxXjX:XsXxXcXjXcXxXbXcXbXMXbXbXmXbXmXmXmXMXbXNXmXNXmXmXmXmXmXmXbXmXbXbXmXbXcXcXcXjXjXjXlXlXpXiXpXpXiXiXiXyXyX",
"tXtXtXyXyXpXyX0X-XJ.0X3XJ.:XgXhXbXcXxXbXmXbXcXMXmXmXmXmXNXmXMXmXNXNXNXmXNXmXmXmXmXmXmXmXmXbXbXbXbXcXjXxXxXjXlXlXpXpXiXiXyXyXyXyX",
"tXtXtXtXyXtX0XA.-.1.-.-.1.-.J.jXlXmXcXcXmXMXMXMXMXMXMXmXNXNXNXNXNXNXNXNXNXNXNXNXNXNXmXNXNXbXmXmXbXcXbXbXxXhXlXlXlXcXuXiXiXaXyXaX",
"tXyXiXyXyXiX3XJ.J.J.J.J.J.J.J.sXxXbXMXbXBX:XK.K.K.:XNXNXVXZXZXMXNXNXNXNXNXNXNXNXVXmXNXMXmXmXmXmXbXbXbXcXjXjXjXcXpX,Xj.G.uXyXpXyX",
"yX9XoX9X+X+X+XK.=.A.-.-.-.-.3XbXbXjXbXBXfXq.<.,.,.q.fXNX9X9XVXNXZXNXZXNXNXNXZXNXNXAXNXmXNXNXmXmXmXbXbXcXcXcXcXmX,Xh.K u.C.lXiXyX",
"yX+XC V C V l.K.7 e q q w 0 3XbXbXbXbXMXfXq.:.,.:.,.FXqX[.[.pXAXNXNXZXZXNXZXNXAXgXU.0XAXMXmXmXMXmXbXbXbXbXbX<XC.B.j.f.h.M.C.,XiX",
"aXyXZ v v v @X>X7 r q e q w 3XbXbXBXMXmXfX<.D $.S >.;X X X X.XrXZXZXZXZXZXZXAXcX7XU.7XkXNXNXNXmXmXmXmXmXbXmX,Xy.a.f.a.f.a.r.G.iX",
"yX@Xn n C n Z S.=.-.r =.-.=.3XBXMXcXbXmXfX<.+.>.+.<.}.~ ^ ^ ~ .XAXZXCXCXAXMXgX/.Q.~.Q./.uXcXNXNXNXMXmXbXbXmX,XK 4 L 3 Y L K C.iX",
"lXz.* l b = v g.4.1.;.=.1.-.3X6.>XNXBXNXfX,.>.<.>.,.}.^ ^ ^ ~ .XAXZXAXZXAX7XQ.U.Q.I.Q.I.Q.7XZXMXNXmXmXMXMXMX<XY Y y.L s.a.Y G.lX",
"yXz.v b n x n S.e ;.=.=.e e >X6.6.0.0.>X:X<.S :.S >..X{.[.{.{.9XSXZXZXAXAX7XQ.P.I.P.I.P.Q.OXNXNXNXmXNXmXbXMX,Xy.y.d.a.d.a.y.G.iX",
"iXx.n M n M n g.8 e 9 q q 0 &.g % % % % j <.S :.S <.}.^ [.].^ .XSXAXAXAXAXcX~.P.I.U.I.P.!.gXCXVXNXNXmXmXmXMX<XK G L 3 y.L K C.lX",
"iXz.m m M b n m.w ;.e r e r %.o p g f p j ,.<.<.<.q.[ ~ ].( ~ .XSXAXSXAXAXSX~.Q W.P.I.Y.!.ZXZXNXNXNXNXMXMXNX,Xy.y.a.Y s.a.r.G.lX",
"iXz.* l b = m S.4.1.=.-.4.A.@.o a f p o h ,.S >.+.<..X X{.XXXX9XSXAXSXAXAXAX/.!.!.I.!.!./.MXZXNXZXNXNXBXMXNX<Xy.Y d.L f.Y Y G.lX",
"iXz.v b n v n g.4.-.r r -.A.@.& f g f $ j <.S $.S <.|.( [.[.( +XSXSXSXSXSXSX/.I.I.Q.I.I.~.NXCX>XfXNXNX>X:XNX<XK G L 3 y.L K G.lX",
"xXx.n C n M n g.e ;.=.-.e =.@.+ p g f + j ,.>.<.>.,.[ B ].( B .XDXgXSXSXSXAX~.P.Q.P.Q.P.~.MXdX0.8XfXfX`.`.MX<Xa.a.s.a.d.a.y.C.lX",
"lXz.v b n v n m.8 e 9 q q q %.o a f a o h ,.$.<.+.<.|.[.{.{.[.9XgX6XSXDX6XfX/.d U.d U.d !.`.*.8.8.7.7.8.8.8.D.y.L s.L d.Y L C.lX",
"lXz.* x b = m S.0 e q e q e %.$ f g f $ j <.D $.S >.|.{.{.{.[..X6X6X8X8X'.6X^.P.Q.U.Q.P.!.0.0.0.0.0.0.0.0.0.9.L 4 L 3 y.L K G.xX",
"lXz.m m n b n S.A.A.;.-.A.A.@.i + f p + j ,.+.>.+.,.[ B ].E.~ R.T.T.T.T.T.T.T./.~./.~.)./.7.#.#.#.k &.*.#.*.9.h.s.d.a.f.d.y.G.lX",
"lXx.N p.w.m m R r e -.r e r &.o a g p o h 3.t.W <.<.}.( {.].E.(.T.T.T.T.T.T.W.t.( ~.~.~.^.7.#.#.#.7.#.&.+.i.g.L 4 H H H H K C.lX",
"lXl.t y u N v g.4.-.A.J.A.J.@.R R a i o s w.J w.3.<.|.{.XX.X Xj.i.! d ! ! P w.J J [ ~.f.i.%.h #.s 7.h D k.y u h.f.f.s.y.i.u.G.xX",
"lXz.e.- y b z S.8 7 4.8 X 4.2.2 y &.f p j T   E +.,.[ B ^ ~ c 2 2 O.d ! Q , J ; G ~./.6 2 3.a &.s *.h h W   i.f.f.f.f.i.2 y G.lX",
"FXx.C > r.N N S.e 6 Z.6 < ;.*.O @ g f # j W   E A W }./ E.c c Q F '.T.T.'.d U c ) [ }.Q A 8.h #.h 7.k +.+.# g.j.f.f.d.s.- 5 L.fX",
"j.u.t 6 y u u i.i.p.t p.p.u 6 6 6 6 6 6 6 u.5 r.u.t d.h.h.L L y.T s.s.E s.T u.5 t t t y.T R R R R R R p.u 5 t y y y y u.5 y i.j.",
"M.M.M.N.M.b.M.M.M.M.b.b.M.b.M.B.B.B.B.B.M.M.B.M.M.M.M.M.f.B.B.M.M.M.M.M.M.M.M.B.M.N.M.M.B.M.B.M.M.M.M.M.b.M.M.b.M.M.B.M.B.M.M.M.",
"#X#X#X#X#X#X#X#X$X#X$X$X#X#X$X9.F.#X#X#X$X#X#X$X#X#X#X$X#X#X#X$X$X$X#X#X#X#X#X#X#X#X$X#X#X#X#X$X$X#X#X#X#X#X#X#X#X$X#X#X#X$X#X$X",
"{ { { ] { ] { { { ] { ] ] { { ] { { { { { { { { { { { { ' { { { { { { ] { { ] ] { { { { { { { { { { { { { ] { { { { { { { { { { ",
"{ { { { { { { { { { { { { { {  .{ { { { { {  .{ { { { { { { { { { { { { { { { { { { { { { { { { { { { { { { { { { { { { { { { { ",
"..o.{  .o.o.o.{ { o.o...{ { o.X.{ { { o.o. .{ { o.o.{ { o.X.X.{ { o.o.o.{ { o.X.{ { { o.X.{ { { o.o.{ { { X.o.{ { o.X. .{ { o.} ",
"o.%X..` F.%X#X{ { #X%X#X{ { %X%X(.{ o.%X%Xo.` X.%X%X{ { #X%X#X{ { #X%X#X{ } %X&XX.{ X.%X%Xo.{ X.%X%X} { #X&X#X} { #X%X#X{ { %XX.",
"{ { ` r.t.' { { { { { { { { { ` _ { { { { P t.P ] { { { { { { { _ { { {  .| P w.t._  ._ ` { { { { { { { P w.P { { { {  .{ { { { ",
"{ { t.: J `  .{ {  .{ { { } _ w.w.' { { | J : w._  .{ { o.{ | J J _ {  ._ w.w.3 J ` { I w.` } { ..{ { | J : J _ { { { _ w.P { { ",
"..{ | . U o.{  .{ { { {  ...| 1 G | } { ..O.  `  ...{ } ..{ o.G : | ..} o.1 G . U o.o.G : |  . .{ } { } _   E .. .{  ._ : I  .{ ",
"D.F.v.; J t.I V.D.P P I I P =XO.' =XD.D.&XE ; t.I P V.D.D.D.=X' O.=XD.D.=XO.U ; J I P E W =XD.D.D.D.D.&Xv.; I I P V.D.=XU V.&XD.",
"N.N.n.v.c.c.c.N.N.n.n.n.n.c.N.n.N.N.N.N.N.c.c.n.n.n.n.N.N.N.N.N.N.N.N.N.N.n.n.c.c.n.b.c.n.N.N.N.N.N.N.N.b.c.c.c.c.N.N.N.N.N.N.N.",
"2X2X4X4X4X4X4X4X2X4X4X4X4X5X4X2X2X2X4X4X2XdX2X2X2X4X2X1X:X1X2X:X:X1X:X2X2X:X4X4X2X4XdX4X2X2X4X4X2X2X4X2X5X4X4XdX4X2X2X2X4X2X4X2X",
"1X2X1X1X1X1X2X2X2X2X2X2X2X1X2X2X2X2X2X2X1X2X*XF.&XF.F.F.*XF.-Xo.O.-X*XF.F.F.-X*XF.*X2X1X2X1X2X2X2X2X2X2X2X2X1X2X2X2X2X2X2X2X2X2X",
"2X1X2X2X2X2X2X2X2X2X2X2X1X2X2X1X1X2X1X2X1X2X2X2X1X:X1X1X2X1X1X-X-X2X2X1X3X2X1X2X2X2X2X2X1X2X2X1X2X2X2X2X2X2X2X2X1X2X1X1X1X2X2X2X"
};
